<svg xmlns="http://www.w3.org/2000/svg" width="24.014" height="24.311" viewBox="0 0 24.014 24.311">
  <g id="Shopping-E-Commerce_Baskets_shopping-basket-add" data-name="Shopping-E-Commerce / Baskets / shopping-basket-add" transform="translate(-226.484 -1146.688)">
    <g id="Group_118" data-name="Group 118">
      <g id="shopping-basket-add">
        <path id="Oval_41" data-name="Oval 41" d="M243.748,1170.248a6,6,0,1,0-6-6A6,6,0,0,0,243.748,1170.248Z" fill="none" stroke="#fff" stroke-linecap="round" stroke-linejoin="round" stroke-width="1.5"/>
        <path id="Shape_719" data-name="Shape 719" d="M243.748,1161.248v6" fill="none" stroke="#fff" stroke-linecap="round" stroke-linejoin="round" stroke-width="1.5"/>
        <path id="Shape_720" data-name="Shape 720" d="M240.748,1164.248h6" fill="none" stroke="#fff" stroke-linecap="round" stroke-linejoin="round" stroke-width="1.5"/>
        <path id="Shape_721" data-name="Shape 721" d="M234.374,1164.248h-3.561a1.441,1.441,0,0,1-1.383-1.137l-2.138-9a1.483,1.483,0,0,1,1.383-1.863h18.148a1.486,1.486,0,0,1,1.383,1.863l-.3,1.256" fill="none" stroke="#fff" stroke-linecap="round" stroke-linejoin="round" stroke-width="1.5"/>
        <path id="Shape_722" data-name="Shape 722" d="M230.248,1152.248l4.5-4.5" fill="none" stroke="#fff" stroke-linecap="round" stroke-linejoin="round" stroke-width="1.5"/>
        <path id="Shape_723" data-name="Shape 723" d="M245.248,1152.246l-4.5-4.5" fill="none" stroke="#fff" stroke-linecap="round" stroke-linejoin="round" stroke-width="1.5"/>
      </g>
    </g>
  </g>
</svg>
