<svg xmlns="http://www.w3.org/2000/svg" width="24" height="16.5" viewBox="0 0 24 16.5">
  <g id="Money-Payments-Finance_Money_accounting-bill" data-name="Money-Payments-Finance / Money / accounting-bill" transform="translate(-300 -244.75)">
    <g id="Group_13" data-name="Group 13">
      <g id="accounting-bill">
        <path id="Shape_112" data-name="Shape 112" d="M304.5,248.875a.375.375,0,1,1-.375.375.375.375,0,0,1,.375-.375" fill="none" stroke="#333" stroke-linecap="round" stroke-linejoin="round" stroke-width="1.5"/>
        <path id="Shape_113" data-name="Shape 113" d="M319.5,256.375a.375.375,0,1,1-.375.375.375.375,0,0,1,.375-.375" fill="none" stroke="#333" stroke-linecap="round" stroke-linejoin="round" stroke-width="1.5"/>
        <path id="Rectangle-path_14" data-name="Rectangle-path 14" d="M300.75,247a1.5,1.5,0,0,1,1.5-1.5h19.5a1.5,1.5,0,0,1,1.5,1.5v12a1.5,1.5,0,0,1-1.5,1.5h-19.5a1.5,1.5,0,0,1-1.5-1.5Z" fill="none" stroke="#333" stroke-linecap="round" stroke-linejoin="round" stroke-width="1.5"/>
        <path id="Oval_2" data-name="Oval 2" d="M312,256a3,3,0,1,0-3-3A3,3,0,0,0,312,256Z" fill="none" stroke="#333" stroke-linecap="round" stroke-linejoin="round" stroke-width="1.5"/>
      </g>
    </g>
  </g>
</svg>
