<svg xmlns="http://www.w3.org/2000/svg" width="447.339" height="418.727" viewBox="0 0 447.339 418.727">
  <g id="Group_195" data-name="Group 195" transform="translate(-26.195 -51.787)">
    <g id="Background_Complete" data-name="Background Complete">
      <g id="Group_3" data-name="Group 3">
        <circle id="Ellipse_1" data-name="Ellipse 1" cx="15.309" cy="15.309" r="15.309" transform="translate(62.405 330.646)" fill="#e0e0e0"/>
        <circle id="Ellipse_2" data-name="Ellipse 2" cx="15.309" cy="15.309" r="15.309" transform="translate(85.933 345.702) rotate(-45)" fill="#ebebeb"/>
        <circle id="Ellipse_3" data-name="Ellipse 3" cx="15.309" cy="15.309" r="15.309" transform="translate(26.195 345.702) rotate(-45)" fill="#ebebeb"/>
        <path id="Path_1" data-name="Path 1" d="M27.5,349H127.49s-1.028,41.235-27.874,46.278L99.2,404.03H54.167v-8.914S27.5,388.29,27.5,349Z" fill="#e0e0e0"/>
        <g id="Group_1" data-name="Group 1">
          <path id="Path_2" data-name="Path 2" d="M99.616,395.274c0,.144-10.207.261-22.795.261s-22.8-.117-22.8-.261,10.2-.26,22.8-.26S99.616,395.13,99.616,395.274Z" fill="#fff"/>
        </g>
        <g id="Group_2" data-name="Group 2">
          <path id="Path_3" data-name="Path 3" d="M123.618,370.244s-.216.036-.64.079l-1.885.161a25.27,25.27,0,0,1-7.26-.353,14.493,14.493,0,0,1-4.889-1.955,11.132,11.132,0,0,1-4.147-4.666,8.224,8.224,0,0,1-.7-3.45,6.1,6.1,0,0,1,1.265-3.524,4.3,4.3,0,0,1,1.559-1.244,3.729,3.729,0,0,1,2.042-.27,4.878,4.878,0,0,1,3.348,2.458,6.515,6.515,0,0,1,.575,4.338,12.278,12.278,0,0,1-1.722,4.239,15.087,15.087,0,0,1-7.446,6.014,14.422,14.422,0,0,1-10.218-.109,15.11,15.11,0,0,1-4.642-2.827,10.381,10.381,0,0,1-3.151-4.617,5.145,5.145,0,0,1,.016-2.912,3.87,3.87,0,0,1,1.834-2.325,4.769,4.769,0,0,1,5.561,1.263,10.5,10.5,0,0,1,2.333,5.509,16.858,16.858,0,0,1-.183,6.091A17.86,17.86,0,0,1,88.8,382.615a16.171,16.171,0,0,1-5.744,2.814,18.258,18.258,0,0,1-6.464.434,17.133,17.133,0,0,1-11.231-5.816,12.142,12.142,0,0,1-2.755-5.675,8.185,8.185,0,0,1,1.278-6.049,6.19,6.19,0,0,1,5.276-2.908,5.8,5.8,0,0,1,4.916,3.265,4.358,4.358,0,0,1,.2,3.015,5.775,5.775,0,0,1-1.58,2.522,11.462,11.462,0,0,1-5.068,2.665,20.887,20.887,0,0,1-19.889-4.968,11.525,11.525,0,0,1-2.7-4.144,8.149,8.149,0,0,1-.27-4.754,6.709,6.709,0,0,1,2.457-3.852,5.8,5.8,0,0,1,4.243-1.034,5.673,5.673,0,0,1,3.649,2.008,6.068,6.068,0,0,1,1.352,3.723,5.889,5.889,0,0,1-1.17,3.552,8.855,8.855,0,0,1-2.634,2.327,20.7,20.7,0,0,1-5.865,2.207,37.376,37.376,0,0,1-5.194.863,36.183,36.183,0,0,1-7.273-.043,24.409,24.409,0,0,1-2.508-.381s.218.016.64.071,1.051.133,1.878.206a37.636,37.636,0,0,0,12.4-.957,20.589,20.589,0,0,0,5.773-2.214,8.553,8.553,0,0,0,2.532-2.262,5.57,5.57,0,0,0,1.092-3.363,5.733,5.733,0,0,0-1.292-3.507,5.314,5.314,0,0,0-3.428-1.865,5.424,5.424,0,0,0-3.964.979,6.33,6.33,0,0,0-2.3,3.637,7.736,7.736,0,0,0,.273,4.517,11.086,11.086,0,0,0,2.612,3.983,20.456,20.456,0,0,0,19.453,4.809,10.993,10.993,0,0,0,4.854-2.554,5.268,5.268,0,0,0,1.447-2.306,3.864,3.864,0,0,0-.183-2.678,5.309,5.309,0,0,0-4.486-2.964,5.023,5.023,0,0,0-2.733.7,6.607,6.607,0,0,0-2.1,1.994,7.666,7.666,0,0,0-1.192,5.677,11.641,11.641,0,0,0,2.644,5.428,16.627,16.627,0,0,0,10.891,5.63,17.757,17.757,0,0,0,6.276-.419,15.684,15.684,0,0,0,5.559-2.721A17.354,17.354,0,0,0,94.77,372.04a16.331,16.331,0,0,0,.185-5.908,10.039,10.039,0,0,0-2.2-5.249,4.287,4.287,0,0,0-4.967-1.171,3.393,3.393,0,0,0-1.6,2.037,4.667,4.667,0,0,0-.015,2.642,9.924,9.924,0,0,0,3,4.4,14.646,14.646,0,0,0,4.491,2.748,13.986,13.986,0,0,0,9.9.132,14.689,14.689,0,0,0,7.256-5.824,11.9,11.9,0,0,0,1.682-4.093,6.149,6.149,0,0,0-.517-4.088,4.528,4.528,0,0,0-3.082-2.293,3.38,3.38,0,0,0-1.848.235,3.965,3.965,0,0,0-1.44,1.14,5.8,5.8,0,0,0-1.212,3.33,7.923,7.923,0,0,0,.654,3.319,10.9,10.9,0,0,0,4.016,4.577,14.372,14.372,0,0,0,4.8,1.965,26.029,26.029,0,0,0,7.209.445l1.887-.109C123.4,370.244,123.618,370.244,123.618,370.244Z" fill="#fff"/>
        </g>
      </g>
      <g id="Group_33" data-name="Group 33">
        <g id="Group_30" data-name="Group 30">
          <g id="Group_16" data-name="Group 16">
            <path id="Path_4" data-name="Path 4" d="M424.421,172.518c-.387,1.311-7.052,11.809-16.658,15.383s-16.755,7.516-14.086,12.224,14.472,2.14,14.472,2.14-23.946,26.034-1.4,40.909c27.494,18.142,56.223-46.795,56.223-46.795Z" fill="#ebebeb"/>
            <g id="Group_4" data-name="Group 4">
              <path id="Path_5" data-name="Path 5" d="M458.444,205.291c-.075.123-9.138-5.279-20.242-12.063s-20.047-12.386-19.972-12.508,9.136,5.277,20.244,12.064S458.519,205.168,458.444,205.291Z" fill="#e0e0e0"/>
            </g>
            <g id="Group_5" data-name="Group 5">
              <path id="Path_6" data-name="Path 6" d="M454.188,213.077c-.074.123-9.865-5.622-21.866-12.832s-21.673-13.156-21.6-13.279,9.863,5.621,21.868,12.833S454.262,212.954,454.188,213.077Z" fill="#e0e0e0"/>
            </g>
            <g id="Group_6" data-name="Group 6">
              <path id="Path_7" data-name="Path 7" d="M449.05,220.457c-.074.123-11.067-6.346-24.552-14.446s-24.36-14.77-24.286-14.894,11.065,6.344,24.554,14.448S449.125,220.333,449.05,220.457Z" fill="#e0e0e0"/>
            </g>
            <g id="Group_7" data-name="Group 7">
              <path id="Path_8" data-name="Path 8" d="M442.637,229.587c-.076.122-8.6-5.074-19.028-11.605s-18.83-11.925-18.753-12.047,8.594,5.073,19.03,11.606S442.714,229.465,442.637,229.587Z" fill="#e0e0e0"/>
            </g>
            <g id="Group_8" data-name="Group 8">
              <path id="Path_9" data-name="Path 9" d="M435.1,238.4c-.08.12-8.014-5-17.719-11.433S399.871,215.225,399.95,215.1s8.012,5,17.721,11.433S435.181,238.285,435.1,238.4Z" fill="#e0e0e0"/>
            </g>
            <g id="Group_9" data-name="Group 9">
              <path id="Path_10" data-name="Path 10" d="M425.48,244.522a6.564,6.564,0,0,1-1.2-.565c-.758-.392-1.841-.983-3.17-1.732-2.657-1.5-6.282-3.648-10.2-6.159s-7.387-4.91-9.857-6.7c-1.235-.894-2.224-1.632-2.9-2.157a6.48,6.48,0,0,1-1.015-.855,6.445,6.445,0,0,1,1.133.691l2.99,2.02c2.52,1.71,6.014,4.054,9.926,6.563s7.5,4.7,10.105,6.279c1.234.749,2.268,1.377,3.084,1.874A6.377,6.377,0,0,1,425.48,244.522Z" fill="#e0e0e0"/>
            </g>
            <g id="Group_10" data-name="Group 10">
              <path id="Path_11" data-name="Path 11" d="M402.933,202.857a21.339,21.339,0,0,1-9.766-6.22c.107-.114,2.035,1.639,4.733,3.346C400.587,201.706,402.992,202.711,402.933,202.857Z" fill="#e0e0e0"/>
            </g>
            <g id="Group_11" data-name="Group 11">
              <path id="Path_12" data-name="Path 12" d="M461.184,195.025a3.264,3.264,0,0,1-.344.563l-1.069,1.555c-.936,1.346-2.315,3.274-4.042,5.641-3.452,4.735-8.323,11.2-13.883,18.206s-10.762,13.213-14.593,17.648c-1.915,2.218-3.48,4-4.579,5.214l-1.273,1.393a3.177,3.177,0,0,1-.47.462,3.075,3.075,0,0,1,.391-.531l1.2-1.457,4.451-5.319c3.757-4.494,8.906-10.735,14.466-17.733s10.469-13.426,14-18.1l4.174-5.541,1.148-1.5A3.06,3.06,0,0,1,461.184,195.025Z" fill="#e0e0e0"/>
            </g>
            <g id="Group_12" data-name="Group 12">
              <path id="Path_13" data-name="Path 13" d="M453.39,189.47c.114.088-9.436,12.55-21.326,27.83s-21.626,27.6-21.74,27.512,9.434-12.547,21.329-27.832S453.277,189.381,453.39,189.47Z" fill="#e0e0e0"/>
            </g>
            <g id="Group_13" data-name="Group 13">
              <path id="Path_14" data-name="Path 14" d="M442.519,183.308a3.528,3.528,0,0,1-.31.619l-.979,1.723c-.864,1.488-2.157,3.617-3.833,6.2-3.337,5.172-8.3,12.087-14.151,19.429s-11.376,13.8-15.365,18.481l-4.754,5.516-1.313,1.483a3.441,3.441,0,0,1-.485.494,3.391,3.391,0,0,1,.4-.562l1.238-1.545,4.627-5.623c3.918-4.739,9.4-11.228,15.239-18.568s10.842-14.2,14.252-19.308c1.712-2.55,3.05-4.646,3.967-6.1l1.061-1.672A3.455,3.455,0,0,1,442.519,183.308Z" fill="#e0e0e0"/>
            </g>
            <g id="Group_14" data-name="Group 14">
              <path id="Path_15" data-name="Path 15" d="M433.6,178.2c.114.087-8.025,10.861-18.176,24.061s-18.477,23.833-18.591,23.745,8.023-10.859,18.178-24.063S433.485,178.111,433.6,178.2Z" fill="#e0e0e0"/>
            </g>
            <g id="Group_15" data-name="Group 15">
              <path id="Path_16" data-name="Path 16" d="M426.888,173.829a10.34,10.34,0,0,1-.856,1.438c-.285.457-.648,1.009-1.106,1.622s-.946,1.338-1.566,2.078a55.683,55.683,0,0,1-4.526,5.04,57.3,57.3,0,0,1-13.342,9.8,55.858,55.858,0,0,1-6.163,2.812c-.891.37-1.727.624-2.451.872s-1.357.435-1.879.571a10.373,10.373,0,0,1-1.628.387,10.345,10.345,0,0,1,1.568-.581c.511-.165,1.134-.373,1.843-.652s1.534-.55,2.41-.939a62.281,62.281,0,0,0,6.072-2.893,60.982,60.982,0,0,0,13.235-9.722,62.55,62.55,0,0,0,4.576-4.928c.634-.72,1.144-1.422,1.617-2.019s.863-1.126,1.173-1.564A10.3,10.3,0,0,1,426.888,173.829Z" fill="#e0e0e0"/>
            </g>
          </g>
          <rect id="Rectangle_1" data-name="Rectangle 1" width="127.872" height="13.501" transform="translate(345.662 159.481)" fill="#e0e0e0"/>
          <g id="Group_29" data-name="Group 29">
            <path id="Path_17" data-name="Path 17" d="M386.2,172.518c-.387,1.311-7.052,11.809-16.658,15.383s-16.756,7.516-14.086,12.224,14.472,2.14,14.472,2.14-23.947,26.034-1.4,40.909c27.493,18.142,56.223-46.795,56.223-46.795Z" fill="#f5f5f5"/>
            <g id="Group_17" data-name="Group 17">
              <path id="Path_18" data-name="Path 18" d="M420.224,205.291c-.075.123-9.139-5.279-20.242-12.063s-20.048-12.386-19.973-12.508,9.137,5.277,20.244,12.064S420.3,205.168,420.224,205.291Z" fill="#e0e0e0"/>
            </g>
            <g id="Group_18" data-name="Group 18">
              <path id="Path_19" data-name="Path 19" d="M415.968,213.077c-.074.123-9.865-5.622-21.866-12.832s-21.673-13.156-21.6-13.279,9.862,5.621,21.867,12.833S416.042,212.954,415.968,213.077Z" fill="#e0e0e0"/>
            </g>
            <g id="Group_19" data-name="Group 19">
              <path id="Path_20" data-name="Path 20" d="M410.83,220.457c-.074.123-11.068-6.346-24.552-14.446s-24.36-14.77-24.286-14.894,11.065,6.344,24.554,14.448S410.9,220.333,410.83,220.457Z" fill="#e0e0e0"/>
            </g>
            <g id="Group_20" data-name="Group 20">
              <path id="Path_21" data-name="Path 21" d="M404.417,229.587c-.076.122-8.6-5.074-19.028-11.605s-18.83-11.925-18.754-12.047,8.6,5.073,19.03,11.606S404.493,229.465,404.417,229.587Z" fill="#e0e0e0"/>
            </g>
            <g id="Group_21" data-name="Group 21">
              <path id="Path_22" data-name="Path 22" d="M396.881,238.4c-.079.12-8.013-5-17.718-11.433S361.651,215.225,361.73,215.1s8.012,5,17.72,11.433S396.961,238.285,396.881,238.4Z" fill="#e0e0e0"/>
            </g>
            <g id="Group_22" data-name="Group 22">
              <path id="Path_23" data-name="Path 23" d="M387.26,244.522a6.55,6.55,0,0,1-1.2-.565c-.757-.392-1.841-.983-3.169-1.732-2.657-1.5-6.282-3.648-10.2-6.159s-7.386-4.91-9.856-6.7c-1.235-.894-2.224-1.632-2.9-2.157a6.5,6.5,0,0,1-1.014-.855,6.49,6.49,0,0,1,1.133.691l2.989,2.02c2.521,1.71,6.015,4.054,9.926,6.563s7.5,4.7,10.106,6.279l3.084,1.874A6.484,6.484,0,0,1,387.26,244.522Z" fill="#e0e0e0"/>
            </g>
            <g id="Group_23" data-name="Group 23">
              <path id="Path_24" data-name="Path 24" d="M364.713,202.857a21.349,21.349,0,0,1-9.767-6.22c.107-.114,2.035,1.639,4.734,3.346C362.367,201.706,364.772,202.711,364.713,202.857Z" fill="#e0e0e0"/>
            </g>
            <g id="Group_24" data-name="Group 24">
              <path id="Path_25" data-name="Path 25" d="M422.963,195.025a3.107,3.107,0,0,1-.344.563l-1.068,1.555c-.936,1.346-2.316,3.274-4.043,5.641-3.452,4.735-8.323,11.2-13.882,18.206s-10.763,13.213-14.593,17.648c-1.915,2.218-3.481,4-4.579,5.214-.524.572-.946,1.034-1.273,1.393a3.143,3.143,0,0,1-.471.462,3.2,3.2,0,0,1,.392-.531l1.2-1.457,4.452-5.319c3.757-4.494,8.906-10.735,14.466-17.733s10.469-13.426,14-18.1c1.733-2.3,3.15-4.182,4.174-5.541l1.147-1.5A3.119,3.119,0,0,1,422.963,195.025Z" fill="#e0e0e0"/>
            </g>
            <g id="Group_25" data-name="Group 25">
              <path id="Path_26" data-name="Path 26" d="M415.17,189.47c.113.088-9.436,12.55-21.327,27.83s-21.625,27.6-21.739,27.512,9.434-12.547,21.328-27.832S415.056,189.381,415.17,189.47Z" fill="#e0e0e0"/>
            </g>
            <g id="Group_26" data-name="Group 26">
              <path id="Path_27" data-name="Path 27" d="M404.3,183.308a3.5,3.5,0,0,1-.311.619c-.249.44-.574,1.012-.978,1.723-.864,1.488-2.157,3.617-3.834,6.2-3.336,5.172-8.3,12.087-14.15,19.429s-11.376,13.8-15.366,18.481c-1.977,2.295-3.591,4.167-4.754,5.516l-1.312,1.483a3.441,3.441,0,0,1-.485.494,3.414,3.414,0,0,1,.4-.562l1.238-1.545,4.628-5.623c3.917-4.739,9.4-11.228,15.239-18.568s10.842-14.2,14.251-19.308c1.713-2.55,3.051-4.646,3.968-6.1l1.061-1.672A3.455,3.455,0,0,1,404.3,183.308Z" fill="#e0e0e0"/>
            </g>
            <g id="Group_27" data-name="Group 27">
              <path id="Path_28" data-name="Path 28" d="M395.378,178.2c.114.087-8.024,10.861-18.175,24.061s-18.477,23.833-18.591,23.745,8.023-10.859,18.178-24.063S395.265,178.111,395.378,178.2Z" fill="#e0e0e0"/>
            </g>
            <g id="Group_28" data-name="Group 28">
              <path id="Path_29" data-name="Path 29" d="M388.668,173.829a10.34,10.34,0,0,1-.856,1.438c-.286.457-.648,1.009-1.106,1.622s-.946,1.338-1.566,2.078a55.841,55.841,0,0,1-4.526,5.04,57.357,57.357,0,0,1-13.342,9.8,55.865,55.865,0,0,1-6.164,2.812c-.89.37-1.726.624-2.45.872s-1.357.435-1.879.571a10.373,10.373,0,0,1-1.628.387,10.288,10.288,0,0,1,1.568-.581c.511-.165,1.133-.373,1.843-.652s1.534-.55,2.41-.939a62.392,62.392,0,0,0,6.072-2.893,60.982,60.982,0,0,0,13.235-9.722,62.743,62.743,0,0,0,4.576-4.928c.633-.72,1.144-1.422,1.617-2.019s.863-1.126,1.173-1.564A10.19,10.19,0,0,1,388.668,173.829Z" fill="#e0e0e0"/>
            </g>
          </g>
        </g>
        <g id="Group_32" data-name="Group 32">
          <rect id="Rectangle_2" data-name="Rectangle 2" width="8.177" height="8.177" transform="translate(405.584 91.922)" fill="#e0e0e0"/>
          <rect id="Rectangle_3" data-name="Rectangle 3" width="76.219" height="48.105" transform="translate(371.752 110.982)" fill="#f5f5f5"/>
          <path id="Path_30" data-name="Path 30" d="M371.752,110.982s11.668-12.189,40.924-11.7,35.3,11.7,35.3,11.7Z" fill="#f5f5f5"/>
          <g id="Group_31" data-name="Group 31">
            <path id="Path_31" data-name="Path 31" d="M447.678,111.765c0,.144-17.135.261-38.266.261s-38.27-.117-38.27-.261,17.131-.26,38.27-.26S447.678,111.622,447.678,111.765Z" fill="#e0e0e0"/>
          </g>
          <path id="Rectangle_4" data-name="Rectangle 4" d="M0,0H17.215a2.763,2.763,0,0,1,2.763,2.763V3.822a2.764,2.764,0,0,1-2.764,2.764H0a0,0,0,0,1,0,0V0A0,0,0,0,1,0,0Z" transform="translate(447.678 111.765)" fill="#e0e0e0"/>
          <path id="Rectangle_5" data-name="Rectangle 5" d="M0,0H17.215a2.764,2.764,0,0,1,2.764,2.764V3.822a2.764,2.764,0,0,1-2.764,2.764H0a0,0,0,0,1,0,0V0A0,0,0,0,1,0,0Z" transform="translate(372.035 118.351) rotate(-180)" fill="#e0e0e0"/>
          <rect id="Rectangle_6" data-name="Rectangle 6" width="20.628" height="4.715" rx="1.979" transform="translate(399.548 89.565)" fill="#e0e0e0"/>
        </g>
      </g>
    </g>
    <g id="Table">
      <g id="Group_34" data-name="Group 34">
        <path id="Path_33" data-name="Path 33" d="M470.5,403.769c0,.144-98.729.26-220.489.26-121.8,0-220.511-.116-220.511-.26s98.708-.26,220.511-.26C371.771,403.509,470.5,403.625,470.5,403.769Z" fill="#263238"/>
      </g>
    </g>
    <g id="Character">
      <g id="Group_163" data-name="Group 163">
        <path id="Path_34" data-name="Path 34" d="M323.918,257.562c-.4,1.708-8.91,79.189-8.91,79.189l-7.7,10.946-2.087,16.761,15.969,39.575H202.845s-1.878-20.91-1.716-26.5,3.013-26.1,3.013-26.1l-.275-20.824-4.481-90.795,40.1-12.935c24.229-4.169,59.886,13.959,59.886,13.959Z" fill="#3addda"/>
        <g id="Group_117" data-name="Group 117">
          <path id="Path_35" data-name="Path 35" d="M308.539,199.814c5.269-.33,9.31-4.736,12.215-9.144,2.713-4.116,5.035-8.742,5.06-13.671.021-4.28-1.686-8.357-3.364-12.294-1.729-4.055-3.487-8.162-6.2-11.633s-6.55-6.292-10.924-6.836" fill="#263238"/>
          <g id="Group_101" data-name="Group 101">
            <g id="Group_100" data-name="Group 100">
              <g id="Group_99" data-name="Group 99">
                <g id="Group_88" data-name="Group 88">
                  <g id="Group_87" data-name="Group 87">
                    <g id="Group_86" data-name="Group 86">
                      <g id="Group_39" data-name="Group 39">
                        <g id="Group_38" data-name="Group 38">
                          <g id="Group_37" data-name="Group 37">
                            <g id="Group_36" data-name="Group 36">
                              <g id="Group_35" data-name="Group 35">
                                <path id="Path_36" data-name="Path 36" d="M246.945,220.456l.053-1.3,3.091-75.649,1.708-4.293,37.839-5.233A21.786,21.786,0,0,1,313.1,154.942c.487,13.77.538,30.6-1.373,40.812C307.88,216.287,292,218.476,292,218.476s-.273,5.376-.567,13.141c-.223,5.867-5.4,22.775-11.271,22.941-2.521.071-9.4-2.114-12.682-2.593C246.786,248.943,246.945,220.456,246.945,220.456Z" fill="#ffbe9d"/>
                              </g>
                            </g>
                          </g>
                        </g>
                      </g>
                      <g id="Group_51" data-name="Group 51">
                        <g id="Group_44" data-name="Group 44">
                          <g id="Group_43" data-name="Group 43">
                            <g id="Group_42" data-name="Group 42">
                              <g id="Group_41" data-name="Group 41">
                                <g id="Group_40" data-name="Group 40">
                                  <path id="Path_37" data-name="Path 37" d="M306.113,166.944a2.648,2.648,0,0,1-2.625,2.6,2.531,2.531,0,0,1-2.66-2.46,2.647,2.647,0,0,1,2.621-2.6A2.534,2.534,0,0,1,306.113,166.944Z" fill="#263238"/>
                                </g>
                              </g>
                            </g>
                          </g>
                        </g>
                        <g id="Group_50" data-name="Group 50">
                          <g id="Group_49" data-name="Group 49">
                            <g id="Group_48" data-name="Group 48">
                              <g id="Group_47" data-name="Group 47">
                                <g id="Group_46" data-name="Group 46">
                                  <g id="Group_45" data-name="Group 45">
                                    <path id="Path_38" data-name="Path 38" d="M309.208,163.59c-.338.336-2.3-1.2-5.147-1.273-2.842-.112-4.971,1.294-5.271.938-.147-.159.2-.772,1.132-1.409a7.259,7.259,0,0,1,4.231-1.178,6.97,6.97,0,0,1,4.084,1.445C309.094,162.808,309.373,163.44,309.208,163.59Z" fill="#263238"/>
                                  </g>
                                </g>
                              </g>
                            </g>
                          </g>
                        </g>
                      </g>
                      <g id="Group_63" data-name="Group 63">
                        <g id="Group_56" data-name="Group 56">
                          <g id="Group_55" data-name="Group 55">
                            <g id="Group_54" data-name="Group 54">
                              <g id="Group_53" data-name="Group 53">
                                <g id="Group_52" data-name="Group 52">
                                  <path id="Path_39" data-name="Path 39" d="M278.26,166.671a2.646,2.646,0,0,1-2.624,2.6,2.53,2.53,0,0,1-2.661-2.459,2.647,2.647,0,0,1,2.621-2.6A2.532,2.532,0,0,1,278.26,166.671Z" fill="#263238"/>
                                </g>
                              </g>
                            </g>
                          </g>
                        </g>
                        <g id="Group_62" data-name="Group 62">
                          <g id="Group_61" data-name="Group 61">
                            <g id="Group_60" data-name="Group 60">
                              <g id="Group_59" data-name="Group 59">
                                <g id="Group_58" data-name="Group 58">
                                  <g id="Group_57" data-name="Group 57">
                                    <path id="Path_40" data-name="Path 40" d="M281.216,163.35c-.338.335-2.3-1.2-5.147-1.274-2.842-.111-4.971,1.295-5.271.938-.146-.158.2-.771,1.132-1.409a7.254,7.254,0,0,1,4.231-1.177,6.966,6.966,0,0,1,4.085,1.444C281.1,162.568,281.381,163.2,281.216,163.35Z" fill="#263238"/>
                                  </g>
                                </g>
                              </g>
                            </g>
                          </g>
                        </g>
                      </g>
                      <g id="Group_69" data-name="Group 69">
                        <g id="Group_68" data-name="Group 68">
                          <g id="Group_67" data-name="Group 67">
                            <g id="Group_66" data-name="Group 66">
                              <g id="Group_65" data-name="Group 65">
                                <g id="Group_64" data-name="Group 64">
                                  <path id="Path_41" data-name="Path 41" d="M290.963,184.742c-.009-.163,1.77-.419,4.646-.707.729-.055,1.421-.18,1.557-.673a3.7,3.7,0,0,0-.426-2.167q-.951-2.667-2-5.594c-2.767-7.962-4.749-14.5-4.427-14.609s2.826,6.257,5.593,14.219q1,2.943,1.9,5.624a4.2,4.2,0,0,1,.3,2.862,1.828,1.828,0,0,1-1.225,1.03,4.917,4.917,0,0,1-1.239.137C292.76,184.94,290.97,184.9,290.963,184.742Z" fill="#263238"/>
                                </g>
                              </g>
                            </g>
                          </g>
                        </g>
                      </g>
                      <g id="Group_74" data-name="Group 74">
                        <g id="Group_73" data-name="Group 73">
                          <g id="Group_72" data-name="Group 72">
                            <g id="Group_71" data-name="Group 71">
                              <g id="Group_70" data-name="Group 70">
                                <path id="Path_42" data-name="Path 42" d="M292,218.476a52.482,52.482,0,0,1-27.417-8.13s6.31,14.352,27,12.991Z" fill="#eb996e"/>
                              </g>
                            </g>
                          </g>
                        </g>
                      </g>
                      <g id="Group_79" data-name="Group 79">
                        <g id="Group_78" data-name="Group 78">
                          <g id="Group_77" data-name="Group 77">
                            <g id="Group_76" data-name="Group 76">
                              <g id="Group_75" data-name="Group 75">
                                <path id="Path_43" data-name="Path 43" d="M289.571,191.568a5.129,5.129,0,0,0-4.545-2.032,4.682,4.682,0,0,0-3.281,1.645,2.969,2.969,0,0,0-.32,3.387,3.446,3.446,0,0,0,3.706,1.046,10.79,10.79,0,0,0,3.7-2.071,3.168,3.168,0,0,0,.837-.819.953.953,0,0,0,.024-1.059" fill="#eb996e"/>
                              </g>
                            </g>
                          </g>
                        </g>
                      </g>
                      <g id="Group_85" data-name="Group 85">
                        <g id="Group_84" data-name="Group 84">
                          <g id="Group_83" data-name="Group 83">
                            <g id="Group_82" data-name="Group 82">
                              <g id="Group_81" data-name="Group 81">
                                <g id="Group_80" data-name="Group 80">
                                  <path id="Path_44" data-name="Path 44" d="M282.533,186.48c.464-.015.384,3.075,2.968,5.341s5.882,2.016,5.894,2.449c.038.194-.75.58-2.141.579a7.693,7.693,0,0,1-4.924-1.87,6.7,6.7,0,0,1-2.291-4.473C281.956,187.212,282.322,186.456,282.533,186.48Z" fill="#263238"/>
                                </g>
                              </g>
                            </g>
                          </g>
                        </g>
                      </g>
                    </g>
                  </g>
                </g>
                <g id="Group_93" data-name="Group 93">
                  <g id="Group_92" data-name="Group 92">
                    <g id="Group_91" data-name="Group 91">
                      <g id="Group_90" data-name="Group 90">
                        <g id="Group_89" data-name="Group 89">
                          <path id="Path_45" data-name="Path 45" d="M282.259,152.216c-.3.766-3.134.321-6.484.631-3.357.244-6.076,1.147-6.5.44-.189-.337.3-1.052,1.41-1.771a11.325,11.325,0,0,1,9.892-.817C281.789,151.227,282.389,151.852,282.259,152.216Z" fill="#263238"/>
                        </g>
                      </g>
                    </g>
                  </g>
                </g>
                <g id="Group_98" data-name="Group 98">
                  <g id="Group_97" data-name="Group 97">
                    <g id="Group_96" data-name="Group 96">
                      <g id="Group_95" data-name="Group 95">
                        <g id="Group_94" data-name="Group 94">
                          <path id="Path_46" data-name="Path 46" d="M308.388,155.324c-.518.633-2.46-.092-4.817-.189-2.353-.179-4.366.314-4.808-.374-.191-.334.141-.973,1.03-1.561a6.982,6.982,0,0,1,7.755.454C308.363,154.341,308.618,155.015,308.388,155.324Z" fill="#263238"/>
                        </g>
                      </g>
                    </g>
                  </g>
                </g>
              </g>
            </g>
          </g>
          <path id="Path_47" data-name="Path 47" d="M246.739,166.615a38.029,38.029,0,0,0-10.39,9.4c-3.28,4.116-5.412,9.438-4.593,14.637,1.135,7.2,7.384,12.33,13.19,16.744,3.346.486,5.835-3.207,6.357-6.548s.054-6.951,1.636-9.94c1.42-2.68,4.223-4.322,6.094-6.71,3.48-4.444,3.243-10.693,2.393-16.273s.033-14.018,7.172-21.952C268.6,145.975,251.164,152.814,246.739,166.615Z" fill="#263238"/>
          <path id="Path_48" data-name="Path 48" d="M240.556,185.194c3.048-4.33,2.243-10.689-1.221-14.693s-9.08-5.75-14.355-5.3c-3.844.331-7.727,1.836-10.21,4.789s-3.233,7.494-1.171,10.754c1.14,1.8,3.124,3.508,2.666,5.591-.441,2.006-2.813,2.767-4.5,3.94a8.632,8.632,0,0,0-2.96,9.6,10.726,10.726,0,0,0,7.772,6.769,14.264,14.264,0,0,0,10.346-1.854c-.02,3.206,3.443,5.655,6.637,5.383s5.9-2.594,7.609-5.3a23.325,23.325,0,0,0,3.144-13.011,69.546,69.546,0,0,0-2.073-13.4" fill="#263238"/>
          <g id="Group_102" data-name="Group 102">
            <path id="Path_49" data-name="Path 49" d="M245.841,208.382a2.274,2.274,0,0,1-.473-.3l-1.295-.939c-1.111-.833-2.719-2.043-4.591-3.685a33.606,33.606,0,0,1-5.857-6.5,19.737,19.737,0,0,1-3.421-10.112,13.966,13.966,0,0,1,.868-5.523,13.529,13.529,0,0,1,2.793-4.4,40.623,40.623,0,0,1,6.883-5.4,40.13,40.13,0,0,0,4.651-3.55c.513-.463.889-.846,1.136-1.114a2.317,2.317,0,0,1,.41-.382,2.269,2.269,0,0,1-.331.451,11.982,11.982,0,0,1-1.075,1.191,34.761,34.761,0,0,1-4.58,3.706,42.481,42.481,0,0,0-6.741,5.419,13.182,13.182,0,0,0-2.669,4.251,13.6,13.6,0,0,0-.825,5.324,19.523,19.523,0,0,0,3.3,9.866,34.636,34.636,0,0,0,5.7,6.488c1.828,1.666,3.4,2.918,4.47,3.8L245.432,208A2.285,2.285,0,0,1,245.841,208.382Z" fill="#455a64"/>
          </g>
          <g id="Group_103" data-name="Group 103">
            <path id="Path_50" data-name="Path 50" d="M231.137,182.279c-.085.049-.612-1.054-1.924-2.462a12.667,12.667,0,0,0-13.684-3.351c-1.814.642-2.791,1.377-2.843,1.294-.019-.026.205-.232.656-.547a10.662,10.662,0,0,1,2.057-1.091,12.338,12.338,0,0,1,14.088,3.449,10.732,10.732,0,0,1,1.321,1.919A2.4,2.4,0,0,1,231.137,182.279Z" fill="#455a64"/>
          </g>
          <g id="Group_104" data-name="Group 104">
            <path id="Path_51" data-name="Path 51" d="M215.09,187.757c-.058-.006.311-.991,1.658-1.834a7.17,7.17,0,0,1,2.558-.924,17.324,17.324,0,0,1,3.291-.186,23.065,23.065,0,0,1,5.88.925,8.012,8.012,0,0,1,2.286.918,20.273,20.273,0,0,1-2.38-.562,29.192,29.192,0,0,0-5.8-.76,11.261,11.261,0,0,0-5.65.907A7.706,7.706,0,0,0,215.09,187.757Z" fill="#455a64"/>
          </g>
          <g id="Group_105" data-name="Group 105">
            <path id="Path_52" data-name="Path 52" d="M211.652,204.1c0-.1,1.432-.062,3.674-.5a21.134,21.134,0,0,0,14.154-9.881c1.184-1.954,1.648-3.31,1.736-3.275a3.427,3.427,0,0,1-.271.969,17.065,17.065,0,0,1-1.146,2.492,20.035,20.035,0,0,1-14.409,10.058,17.121,17.121,0,0,1-2.734.217A3.347,3.347,0,0,1,211.652,204.1Z" fill="#455a64"/>
          </g>
          <g id="Group_106" data-name="Group 106">
            <path id="Path_53" data-name="Path 53" d="M232.139,181.956c.039-.048.608.54,1.87,1.232a11.412,11.412,0,0,0,5.856,1.285,13.475,13.475,0,0,0,4.089-.788,14.905,14.905,0,0,0,4.152-2.362,24.237,24.237,0,0,0,6.579-8.752,90.112,90.112,0,0,0,3.809-10.452,60.189,60.189,0,0,1,3.314-8.517,26.043,26.043,0,0,1,3.332-5.187,14.914,14.914,0,0,1,1.139-1.232,2.493,2.493,0,0,1,.441-.385c.034.034-.535.6-1.422,1.744a28.486,28.486,0,0,0-3.159,5.222,64.029,64.029,0,0,0-3.188,8.5,85.189,85.189,0,0,1-3.795,10.527A24.344,24.344,0,0,1,248.4,181.7a15.146,15.146,0,0,1-4.3,2.391,13.594,13.594,0,0,1-4.223.749,11.233,11.233,0,0,1-5.966-1.477,6.33,6.33,0,0,1-.809-.54,4.16,4.16,0,0,1-.55-.45A2.437,2.437,0,0,1,232.139,181.956Z" fill="#455a64"/>
          </g>
          <g id="Group_107" data-name="Group 107">
            <path id="Path_54" data-name="Path 54" d="M261.494,163.418c.049.031-.364.6-.826,1.77a17.927,17.927,0,0,0-1.006,5.195,43.42,43.42,0,0,1-.888,7.917,16.574,16.574,0,0,1-5.245,8.189,15.81,15.81,0,0,1-8.924,3.847,16.638,16.638,0,0,1-7.872-1.209,15.67,15.67,0,0,1-4.563-2.839,10.253,10.253,0,0,1-1.029-1.039,1.787,1.787,0,0,1-.316-.4c.045-.042.5.5,1.477,1.286a16.963,16.963,0,0,0,12.257,3.724,15.515,15.515,0,0,0,8.631-3.764,16.323,16.323,0,0,0,5.122-7.922,46.207,46.207,0,0,0,.983-7.821,16.774,16.774,0,0,1,1.186-5.241,8,8,0,0,1,.7-1.285A1.864,1.864,0,0,1,261.494,163.418Z" fill="#455a64"/>
          </g>
          <g id="Group_108" data-name="Group 108">
            <path id="Path_55" data-name="Path 55" d="M320.749,189.334c-.034-.043.336-.316.875-.928a9.416,9.416,0,0,0,1.749-2.933,12.006,12.006,0,0,0,.709-4.992,16.361,16.361,0,0,0-1.709-5.959c-1.98-4-4.707-7.072-6.488-9.417a25.3,25.3,0,0,1-1.948-2.913,5.053,5.053,0,0,1-.554-1.16,7.67,7.67,0,0,1,.727,1.054c.453.686,1.138,1.654,2.065,2.792a48.947,48.947,0,0,1,6.667,9.416,16.332,16.332,0,0,1,1.719,6.158,11.946,11.946,0,0,1-.846,5.157,8.766,8.766,0,0,1-1.944,2.937,5.581,5.581,0,0,1-.734.616C320.858,189.289,320.76,189.348,320.749,189.334Z" fill="#455a64"/>
          </g>
          <g id="Group_109" data-name="Group 109">
            <path id="Path_56" data-name="Path 56" d="M317.786,195.185a14.739,14.739,0,0,0,2.476-3.576,11.457,11.457,0,0,0,.988-4.564,14.121,14.121,0,0,0-1.165-5.6,48.364,48.364,0,0,0-2.691-5.176c-.869-1.584-1.62-3.027-2.229-4.25s-1.077-2.226-1.379-2.928a4.848,4.848,0,0,1-.41-1.118,5.6,5.6,0,0,1,.592,1.03c.412.768.921,1.72,1.523,2.846.65,1.2,1.432,2.619,2.322,4.186a43.612,43.612,0,0,1,2.754,5.213,14.148,14.148,0,0,1,1.163,5.812,11.387,11.387,0,0,1-1.134,4.71,9.853,9.853,0,0,1-1.889,2.659,6.151,6.151,0,0,1-.661.59C317.887,195.14,317.8,195.2,317.786,195.185Z" fill="#455a64"/>
          </g>
          <g id="Group_116" data-name="Group 116">
            <path id="Path_57" data-name="Path 57" d="M245.764,169.27c6.846-11.689,16.43-22.564,29.606-25.711a48.565,48.565,0,0,1,38.012,6.368V126.884l-16.451-53.1-12.823-6.758-30.281,17.3-7.837,63.87Z" fill="#3addda"/>
            <g id="Group_110" data-name="Group 110" opacity="0.7">
              <path id="Path_58" data-name="Path 58" d="M245.764,169.27c6.846-11.689,16.43-22.564,29.606-25.711a48.565,48.565,0,0,1,38.012,6.368V126.884l-16.451-53.1-12.823-6.758-30.281,17.3-7.837,63.87Z" fill="#fff"/>
            </g>
            <g id="Group_111" data-name="Group 111">
              <path id="Path_59" data-name="Path 59" d="M312.738,127.72a4.683,4.683,0,0,1-.726-.342c-.471-.23-1.136-.624-2.044-1.029a44.468,44.468,0,0,0-7.862-2.941,51.593,51.593,0,0,0-12.3-1.772,62.882,62.882,0,0,0-7.345.274,37.544,37.544,0,0,0-7.735,1.408,51.951,51.951,0,0,0-13.575,6.8,47.566,47.566,0,0,0-9.24,8.292,37.432,37.432,0,0,0-4.641,6.975l-.93,2.088a4.683,4.683,0,0,1-.354.72,4.5,4.5,0,0,1,.256-.757c.19-.489.452-1.22.845-2.138a35.121,35.121,0,0,1,4.541-7.123,46.718,46.718,0,0,1,9.248-8.451,51.506,51.506,0,0,1,13.7-6.9,37.576,37.576,0,0,1,7.839-1.417,61.626,61.626,0,0,1,7.407-.246,50.469,50.469,0,0,1,12.383,1.9,41.119,41.119,0,0,1,7.852,3.114c.9.435,1.551.858,2.006,1.119A4.552,4.552,0,0,1,312.738,127.72Z" fill="#263238"/>
            </g>
            <g id="Group_112" data-name="Group 112">
              <path id="Path_60" data-name="Path 60" d="M292.731,121.553c-.142.024-2.288-12.11-4.791-27.1s-4.42-27.163-4.278-27.186,2.286,12.107,4.791,27.1S292.872,121.529,292.731,121.553Z" fill="#263238"/>
            </g>
            <g id="Group_113" data-name="Group 113">
              <path id="Path_61" data-name="Path 61" d="M272.662,123.744c-.144,0,.083-11.518.507-25.713s.884-25.705,1.027-25.7-.083,11.516-.507,25.716S272.8,123.749,272.662,123.744Z" fill="#263238"/>
            </g>
            <g id="Group_114" data-name="Group 114">
              <path id="Path_62" data-name="Path 62" d="M255.581,133.31a2.161,2.161,0,0,1-.012-.55c.017-.418.039-.937.065-1.571.068-1.363.2-3.334.389-5.767.379-4.866,1.041-11.578,1.969-18.968s1.954-14.058,2.793-18.866c.415-2.4.78-4.346,1.052-5.684.131-.621.239-1.129.325-1.538a2.125,2.125,0,0,1,.149-.529,2.278,2.278,0,0,1-.045.548l-.23,1.555c-.221,1.421-.521,3.352-.888,5.707-.745,4.82-1.708,11.488-2.64,18.872s-1.646,14.081-2.118,18.935c-.228,2.372-.416,4.318-.554,5.75-.065.631-.119,1.148-.163,1.563A2.206,2.206,0,0,1,255.581,133.31Z" fill="#263238"/>
            </g>
            <g id="Group_115" data-name="Group 115">
              <path id="Path_63" data-name="Path 63" d="M295.651,125.437a10.6,10.6,0,0,1-.054,2.319c-.118,1.623-.255,3.5-.406,5.563s-.3,3.94-.424,5.563a10.681,10.681,0,0,1-.29,2.3,9.863,9.863,0,0,1-.078-2.319c.025-1.431.111-3.406.273-5.583s.371-4.142.558-5.56A9.976,9.976,0,0,1,295.651,125.437Z" fill="#263238"/>
            </g>
          </g>
        </g>
        <g id="Group_149" data-name="Group 149">
          <g id="Group_119" data-name="Group 119">
            <path id="Path_64" data-name="Path 64" d="M200.217,352.852c-1.26-1.844-4.646-3.482-6.867-3.725-7.682-.839-14.685,2.471-20.736,7.278l-1.191,2.164c-3.261,2.543-6.66,5.445-7.674,9.454a58.309,58.309,0,0,0-1.386,12.716,9.356,9.356,0,0,0,2.591,6.074,8.4,8.4,0,0,0,5.618,2.731,20.477,20.477,0,0,0,11.709-2.628,32.059,32.059,0,0,0,9.175-7.9,44.981,44.981,0,0,0,9.36-19.952C201.219,356.965,201.423,354.617,200.217,352.852Z" fill="#228482"/>
            <g id="Group_118" data-name="Group 118" opacity="0.4">
              <path id="Path_65" data-name="Path 65" d="M200.217,352.852c-1.26-1.844-4.646-3.482-6.867-3.725-7.682-.839-14.685,2.471-20.736,7.278l-1.191,2.164c-3.261,2.543-6.66,5.445-7.674,9.454a58.309,58.309,0,0,0-1.386,12.716,9.356,9.356,0,0,0,2.591,6.074,8.4,8.4,0,0,0,5.618,2.731,20.477,20.477,0,0,0,11.709-2.628,32.059,32.059,0,0,0,9.175-7.9,44.981,44.981,0,0,0,9.36-19.952C201.219,356.965,201.423,354.617,200.217,352.852Z" fill="#228482"/>
            </g>
          </g>
          <path id="Path_66" data-name="Path 66" d="M199.386,239.809c-1.206.4-61.134,85.342-62.741,90.967s-10.39,19.113,2.009,31.74a246.406,246.406,0,0,0,24.5,21.729c-2.779-21.407,18.292-38.666,32.957-34.184l-11.25-7.634,25.714-34.151" fill="#3addda"/>
          <path id="Path_67" data-name="Path 67" d="M323.918,257.562s9.428,11.784,11.787,19.421c2.014,6.521,12.7,36.682,12.7,36.682l19.469,48.252s-2.957,4.265-3.668,7.877c-.282,1.434-2.756,23.6-8.654,33.037l-31.23-13.96-3.935-27.954-5.377-24.166,5.565-64.85Z" fill="#3addda"/>
          <path id="Path_68" data-name="Path 68" d="M236.268,227.554s8.034-7.387,10.224-8.423c0,0,2.541,8.665,9.967,12.769s12.275,8.523,12.275,9.109v10.748S238.194,243.41,236.268,227.554Z" fill="#3addda"/>
          <path id="Path_69" data-name="Path 69" d="M241.378,282.24l59.4-3.588-2.743-33.93-2.587-5.753-4.021-7.215a11.359,11.359,0,0,1-2.8,6.588,22.646,22.646,0,0,1-12.07,6.38l-1.172,7.035L245.3,239.325s-3.925,40.961-3.925,41.938" fill="#3addda"/>
          <g id="Group_120" data-name="Group 120">
            <path id="Path_70" data-name="Path 70" d="M276.551,244.722a2.6,2.6,0,0,1-.046.46c-.048.331-.112.776-.2,1.348-.19,1.22-.464,2.975-.818,5.246l-.015.093-.1,0-24.434.747-4.031.115-2.082.059a6.242,6.242,0,0,0-2.027.261,4.57,4.57,0,0,0-2.825,2.841,5.391,5.391,0,0,0-.233,2.129q.021,1.13.043,2.276c.129,6.118.267,12.6.409,19.3.455,18.78.746,35.788.66,48.1-.027,6.155-.1,11.135-.181,14.576-.046,1.7-.082,3.024-.107,3.962-.018.431-.031.771-.042,1.03a1.8,1.8,0,0,1-.031.351,1.792,1.792,0,0,1-.022-.352c0-.259-.006-.6-.01-1.03,0-.939.005-2.268.01-3.963,0-3.474.009-8.445.015-14.575-.008-12.307-.358-29.305-.813-48.086-.135-6.707-.265-13.186-.388-19.305l-.037-2.277a5.9,5.9,0,0,1,.265-2.3,5.048,5.048,0,0,1,3.134-3.132,6.714,6.714,0,0,1,2.168-.278l2.082-.051,4.032-.1,24.439-.537-.109.1c.4-2.263.711-4.012.926-5.227l.253-1.339A2.653,2.653,0,0,1,276.551,244.722Z" fill="#263238"/>
          </g>
          <g id="Group_123" data-name="Group 123">
            <circle id="Ellipse_4" data-name="Ellipse 4" cx="2.545" cy="2.545" r="2.545" transform="translate(244.201 262.319)" fill="#263238"/>
            <g id="Group_121" data-name="Group 121">
              <path id="Path_71" data-name="Path 71" d="M260.951,262.134c.015.153-2.865.526-6.341,1.337s-6.232,1.729-6.285,1.584a32.762,32.762,0,0,1,12.626-2.921Z" fill="#263238"/>
            </g>
            <g id="Group_122" data-name="Group 122">
              <path id="Path_72" data-name="Path 72" d="M256.688,267.177a39.6,39.6,0,0,1-4.437-.931,39.8,39.8,0,0,1-4.439-.928,19.925,19.925,0,0,1,8.876,1.859Z" fill="#263238"/>
            </g>
          </g>
          <g id="Group_126" data-name="Group 126">
            <circle id="Ellipse_5" data-name="Ellipse 5" cx="2.545" cy="2.545" r="2.545" transform="translate(244.201 291.04)" fill="#263238"/>
            <g id="Group_124" data-name="Group 124">
              <path id="Path_73" data-name="Path 73" d="M260.951,290.855c.015.153-2.865.527-6.341,1.338s-6.232,1.728-6.285,1.584a32.738,32.738,0,0,1,12.626-2.922Z" fill="#263238"/>
            </g>
            <g id="Group_125" data-name="Group 125">
              <path id="Path_74" data-name="Path 74" d="M256.688,295.9a39.757,39.757,0,0,1-4.437-.932,39.685,39.685,0,0,1-4.439-.927,19.889,19.889,0,0,1,8.876,1.859Z" fill="#263238"/>
            </g>
          </g>
          <g id="Group_129" data-name="Group 129">
            <circle id="Ellipse_6" data-name="Ellipse 6" cx="2.545" cy="2.545" r="2.545" transform="translate(244.201 319.762)" fill="#263238"/>
            <g id="Group_127" data-name="Group 127">
              <path id="Path_75" data-name="Path 75" d="M260.951,319.577c.015.153-2.865.526-6.341,1.337s-6.232,1.729-6.285,1.584a32.763,32.763,0,0,1,12.626-2.921Z" fill="#263238"/>
            </g>
            <g id="Group_128" data-name="Group 128">
              <path id="Path_76" data-name="Path 76" d="M256.688,324.62a39.6,39.6,0,0,1-4.437-.931,39.8,39.8,0,0,1-4.439-.928,19.925,19.925,0,0,1,8.876,1.859Z" fill="#263238"/>
            </g>
          </g>
          <g id="Group_130" data-name="Group 130">
            <path id="Path_77" data-name="Path 77" d="M206.947,316.018a3.994,3.994,0,0,1,.141-.726c.127-.519.293-1.2.5-2.055.443-1.782,1.1-4.357,1.851-7.551s1.582-7.012,2.231-11.3a77.51,77.51,0,0,0,.916-14.027,51.731,51.731,0,0,0-2.375-13.811,40.564,40.564,0,0,0-4.944-10.311,33.383,33.383,0,0,0-5.007-5.882c-.646-.651-1.231-1.062-1.583-1.393a3.964,3.964,0,0,1-.542-.5,3.836,3.836,0,0,1,.606.42,20.833,20.833,0,0,1,1.655,1.325,31.266,31.266,0,0,1,5.175,5.825,39.823,39.823,0,0,1,5.1,10.371,51.117,51.117,0,0,1,2.44,13.941,75.478,75.478,0,0,1-.963,14.118c-.678,4.3-1.55,8.122-2.347,11.31s-1.51,5.75-2.014,7.516c-.246.843-.444,1.517-.6,2.03A3.871,3.871,0,0,1,206.947,316.018Z" fill="#263238"/>
          </g>
          <g id="Group_131" data-name="Group 131">
            <path id="Path_78" data-name="Path 78" d="M206.024,315.142a7,7,0,0,1-.34-1.332c-.191-.864-.415-2.125-.644-3.69a79.145,79.145,0,0,1,.351-24.635c.274-1.558.534-2.812.75-3.67a6.812,6.812,0,0,1,.378-1.321,6.992,6.992,0,0,1-.18,1.362c-.154.868-.358,2.128-.584,3.686a93.511,93.511,0,0,0-.35,24.531c.182,1.564.349,2.83.479,3.7A6.859,6.859,0,0,1,206.024,315.142Z" fill="#263238"/>
          </g>
          <g id="Group_132" data-name="Group 132">
            <path id="Path_79" data-name="Path 79" d="M149.148,341.2a13.31,13.31,0,0,1,1.554-.39,21.112,21.112,0,0,0,4.023-1.619c1.638-.834,3.49-2.012,5.594-3.266a22.074,22.074,0,0,1,7.382-3.066,12.483,12.483,0,0,1,7.861,1.287,24.188,24.188,0,0,1,5.3,3.82,31.944,31.944,0,0,1,3.029,3.18,8.3,8.3,0,0,1,.969,1.285,11.187,11.187,0,0,1-1.121-1.151,41.29,41.29,0,0,0-3.122-3.039,25.118,25.118,0,0,0-5.265-3.664,12.171,12.171,0,0,0-7.563-1.2,22.263,22.263,0,0,0-7.226,2.968c-2.106,1.223-3.992,2.379-5.672,3.181a18.528,18.528,0,0,1-4.14,1.486,11.545,11.545,0,0,1-1.184.175A1.264,1.264,0,0,1,149.148,341.2Z" fill="#263238"/>
          </g>
          <g id="Group_133" data-name="Group 133">
            <path id="Path_80" data-name="Path 80" d="M169.861,320.391a3.791,3.791,0,0,1,.952.365,8.994,8.994,0,0,1,1.068.536,15.092,15.092,0,0,1,1.359.816,22.132,22.132,0,0,1,3.227,2.578,23.478,23.478,0,0,1,5.574,8.379,22.092,22.092,0,0,1,1.131,3.972,14.89,14.89,0,0,1,.228,1.569,8.991,8.991,0,0,1,.082,1.193,3.833,3.833,0,0,1-.031,1.019c-.1.005-.136-1.446-.639-3.706a24.824,24.824,0,0,0-1.216-3.869,24.83,24.83,0,0,0-5.466-8.215,24.779,24.779,0,0,0-3.1-2.616C171.142,321.075,169.816,320.482,169.861,320.391Z" fill="#263238"/>
          </g>
          <g id="Group_134" data-name="Group 134" opacity="0.4">
            <path id="Path_81" data-name="Path 81" d="M183.007,339.576a24.438,24.438,0,0,0-21.058-14.545,7.268,7.268,0,0,0-3.557.553,3.1,3.1,0,0,0-1.825,2.9,8.555,8.555,0,0,1,.28,1.748c-.145,1.337-1.795,1.811-3.089,2.18a13.108,13.108,0,0,0-6.432,4.188c-.87,1.045-1.566,2.618-.731,3.691.685.88,2,.878,3.1.685,4.119-.724,7.79-2.945,11.556-4.763s8-3.287,12.076-2.367c4.511,1.017,7.859,4.7,10.894,8.191"/>
          </g>
          <g id="Group_135" data-name="Group 135">
            <path id="Path_82" data-name="Path 82" d="M315.008,336.751a2.4,2.4,0,0,1-.372.435l-1.141,1.179c-.495.514-1.113,1.129-1.865,1.807s-1.577,1.485-2.564,2.293a86.667,86.667,0,0,1-7.091,5.47,88.464,88.464,0,0,1-19.407,10.142,86.688,86.688,0,0,1-8.539,2.7c-1.227.349-2.36.571-3.347.8s-1.844.387-2.547.5l-1.62.264a2.344,2.344,0,0,1-.57.056,2.458,2.458,0,0,1,.552-.16l1.6-.359c.7-.143,1.546-.328,2.522-.584s2.1-.5,3.316-.867c2.45-.667,5.326-1.608,8.465-2.792A93.635,93.635,0,0,0,301.7,347.539c2.764-1.9,5.179-3.725,7.125-5.356,1-.786,1.841-1.567,2.6-2.227s1.4-1.247,1.92-1.736l1.208-1.108A2.359,2.359,0,0,1,315.008,336.751Z" fill="#263238"/>
          </g>
          <g id="Group_136" data-name="Group 136">
            <path id="Path_83" data-name="Path 83" d="M324.32,270.988a3.23,3.23,0,0,1-.066.674l-.289,1.914c-.272,1.722-.648,4.108-1.109,7.029-.915,5.939-2.123,14.152-3.369,23.236-1.216,9.063-2.317,17.265-3.123,23.276-.393,2.932-.715,5.327-.947,7.054-.114.79-.206,1.425-.278,1.916a3.339,3.339,0,0,1-.131.664,3.288,3.288,0,0,1,.027-.676c.046-.494.107-1.134.181-1.928.192-1.733.457-4.134.783-7.075.693-5.971,1.721-14.213,2.972-23.3s2.513-17.3,3.521-23.224c.516-2.961.94-5.357,1.273-7.005l.386-1.9A3.384,3.384,0,0,1,324.32,270.988Z" fill="#263238"/>
          </g>
          <g id="Group_137" data-name="Group 137">
            <path id="Path_84" data-name="Path 84" d="M290.477,369.862a4.444,4.444,0,0,1,.542-.957c.377-.6.941-1.449,1.654-2.491,1.423-2.085,3.452-4.923,5.787-7.987s4.535-5.773,6.167-7.7c.816-.964,1.487-1.733,1.964-2.255a4.458,4.458,0,0,1,.779-.777,4.529,4.529,0,0,1-.623.907l-1.834,2.357c-1.558,1.983-3.707,4.723-6.039,7.782s-4.4,5.857-5.9,7.884q-1.051,1.408-1.787,2.394A4.548,4.548,0,0,1,290.477,369.862Z" fill="#263238"/>
          </g>
          <g id="Group_138" data-name="Group 138">
            <path id="Path_85" data-name="Path 85" d="M354.855,349.042a12.9,12.9,0,0,1-1.6-.66c-1.019-.443-2.5-1.074-4.376-1.724a42.863,42.863,0,0,0-15.168-2.552,12.163,12.163,0,0,0-4.233.873,11,11,0,0,0-3.325,2.251,17.455,17.455,0,0,0-3.755,5.744c-.773,1.822-1.235,3.368-1.58,4.425a11.642,11.642,0,0,1-.566,1.636,10.484,10.484,0,0,1,.371-1.692,37.807,37.807,0,0,1,1.435-4.509,17.289,17.289,0,0,1,3.759-5.947,11.317,11.317,0,0,1,3.461-2.377,12.477,12.477,0,0,1,4.408-.924A40.84,40.84,0,0,1,349,346.311a43.761,43.761,0,0,1,4.336,1.887c.5.244.88.458,1.137.6A1.491,1.491,0,0,1,354.855,349.042Z" fill="#263238"/>
          </g>
          <g id="Group_139" data-name="Group 139">
            <path id="Path_86" data-name="Path 86" d="M347.37,333.342c0,.106-1.569.056-4.038.483a26.034,26.034,0,0,0-4.24,1.126,26.192,26.192,0,0,0-9.1,5.572,26,26,0,0,0-2.931,3.264c-1.5,2-2.173,3.425-2.266,3.376a4.433,4.433,0,0,1,.429-1.014,9.6,9.6,0,0,1,.613-1.137,16.083,16.083,0,0,1,.926-1.442,23.53,23.53,0,0,1,2.9-3.4,24.912,24.912,0,0,1,9.274-5.677,23.584,23.584,0,0,1,4.341-1.037,16.157,16.157,0,0,1,1.705-.169,9.592,9.592,0,0,1,1.292-.029A4.536,4.536,0,0,1,347.37,333.342Z" fill="#263238"/>
          </g>
          <g id="Group_141" data-name="Group 141">
            <path id="Path_87" data-name="Path 87" d="M355.411,396.711A19.724,19.724,0,0,0,344,381.631c-4.763-2.132-11.348-2.619-15.876-.025s-10.587,9.061-9.363,14.134l10.39,17.453a16.514,16.514,0,0,0,18.532.583A17.97,17.97,0,0,0,355.411,396.711Z" fill="#228482"/>
            <g id="Group_140" data-name="Group 140" opacity="0.4">
              <path id="Path_88" data-name="Path 88" d="M355.411,396.711A19.724,19.724,0,0,0,344,381.631c-4.763-2.132-11.348-2.619-15.876-.025s-10.587,9.061-9.363,14.134l10.39,17.453a16.514,16.514,0,0,0,18.532.583A17.97,17.97,0,0,0,355.411,396.711Z" fill="#228482"/>
            </g>
          </g>
          <g id="Group_142" data-name="Group 142">
            <path id="Path_89" data-name="Path 89" d="M352.175,409.433c-.039-.025.364-.7,1.022-1.948a20.058,20.058,0,0,0,1.794-5.658,18.192,18.192,0,0,0-.765-8.684,21.035,21.035,0,0,0-.954-2.354,21.33,21.33,0,0,0-1.349-2.28,18.923,18.923,0,0,0-3.732-4.113,18.477,18.477,0,0,0-4.766-2.833,19.372,19.372,0,0,0-13.707-.038,20.657,20.657,0,0,0-5.242,2.8c-1.128.845-1.707,1.38-1.743,1.341a2.359,2.359,0,0,1,.393-.414,13.935,13.935,0,0,1,1.226-1.088,19.405,19.405,0,0,1,5.238-2.982,19.484,19.484,0,0,1,14.021-.093,18.788,18.788,0,0,1,4.912,2.908,19.181,19.181,0,0,1,3.823,4.229,21.74,21.74,0,0,1,1.373,2.346,21.4,21.4,0,0,1,.963,2.422,18.236,18.236,0,0,1,.673,8.894,18.884,18.884,0,0,1-1.978,5.693c-.34.625-.667,1.076-.865,1.393A2.369,2.369,0,0,1,352.175,409.433Z" fill="#263238"/>
          </g>
          <g id="Group_143" data-name="Group 143">
            <path id="Path_90" data-name="Path 90" d="M323.6,384.894c-.142.023-1.358-6.825-2.715-15.293s-2.343-15.355-2.2-15.378,1.357,6.824,2.715,15.3S323.738,384.871,323.6,384.894Z" fill="#263238"/>
          </g>
          <g id="Group_144" data-name="Group 144" opacity="0.4">
            <path id="Path_91" data-name="Path 91" d="M316.825,344.915l5.307-.364a24.462,24.462,0,0,1,15.329-10.6,9.456,9.456,0,0,1,4.429-.087,4.324,4.324,0,0,1,3.136,2.892,2.848,2.848,0,0,1-1.977,3.464,11,11,0,0,1,6.945,5.5c.3.574.519,1.35.062,1.809a1.608,1.608,0,0,1-1.2.321c-2.455-.036-4.88-.545-7.332-.661a11.027,11.027,0,0,0-7.033,1.652c-1.978,1.435-3.081,3.759-4.031,6.01a121.343,121.343,0,0,0-7.4,25.12c-1.224-4.871-1.34-10.043-2.23-14.619-1.272-6.548-2.5-13.25-4.014-20.445"/>
          </g>
          <g id="Group_145" data-name="Group 145" opacity="0.4">
            <path id="Path_92" data-name="Path 92" d="M201.649,389.075c6.615,7.059,15.535,10.354,25.083,11.912s19.3,1.011,28.956.46c2.381-.135,5.207-.552,6.243-2.7.734-1.524.233-3.334-.364-4.917-4.252-11.27-12.679-20.376-20.909-29.171-3.011-3.218-6.22-6.563-10.431-7.858-4.629-1.424-9.89-.166-14.281-2.209-5.273-2.453-7.429-8.674-9.059-14.256l-3.36-11.5c.741,12.531.615,22.6.615,22.6s-3.46,23.158-3.034,28.413S201.649,389.075,201.649,389.075Z"/>
          </g>
          <g id="Group_146" data-name="Group 146">
            <path id="Path_93" data-name="Path 93" d="M267.481,246.125a6.688,6.688,0,0,1-1.314-.29c-.839-.212-2.037-.584-3.5-1.1a57.444,57.444,0,0,1-20.426-12.687c-1.111-1.079-1.975-1.987-2.537-2.646a6.563,6.563,0,0,1-.842-1.049,6.684,6.684,0,0,1,.989.91c.605.614,1.505,1.479,2.642,2.517a64.756,64.756,0,0,0,20.3,12.61c1.434.558,2.608.982,3.427,1.252A6.584,6.584,0,0,1,267.481,246.125Z" fill="#263238"/>
          </g>
          <g id="Group_147" data-name="Group 147">
            <path id="Path_94" data-name="Path 94" d="M295.361,240.572a2.589,2.589,0,0,1-.377.741,16.256,16.256,0,0,1-1.3,1.854,23.443,23.443,0,0,1-12.345,8.033,16.467,16.467,0,0,1-2.22.434,2.6,2.6,0,0,1-.831.044c-.014-.09,1.148-.279,2.95-.833a26.354,26.354,0,0,0,12.163-7.913C294.641,241.509,295.285,240.523,295.361,240.572Z" fill="#263238"/>
          </g>
          <g id="Group_148" data-name="Group 148">
            <path id="Path_95" data-name="Path 95" d="M299.992,246.739a17.508,17.508,0,0,1-8.154,9.113,59.823,59.823,0,0,0,4.511-4.169A59.874,59.874,0,0,0,299.992,246.739Z" fill="#263238"/>
          </g>
        </g>
        <g id="Group_162" data-name="Group 162">
          <path id="Path_96" data-name="Path 96" d="M247.537,365.647s.231-.049.628-.127c2.211-.433,9.574-1.768,10.76-.582,1.4,1.4,11.369,11.194,11.369,11.194s-1.924,3.148-8.221,0S247.537,365.647,247.537,365.647Z" fill="#ffbe9d"/>
          <path id="Path_97" data-name="Path 97" d="M233.4,345.764h0a5.055,5.055,0,0,1,6.882,1.22l30.389,40.3-7.783,5.676-30.691-39.914A5.056,5.056,0,0,1,233.4,345.764Z" fill="#263238"/>
          <path id="Path_98" data-name="Path 98" d="M163.906,372.753s36.091,5.857,41.062,6.255,18.69,14.912,22.666,16.3,14.714,1.193,14.714,1.193,19.485,1.014,20.082.01,1.789-.805,0-4.583a38.445,38.445,0,0,0-3.977-6.562s4.971,6.164,6.363,6.363,4.374.556,4.175-2.108-5.368-13.6-5.368-13.6-2.188-5.106-6.164-6.231-21.275-9.476-21.275-9.476H217.693l-21.585-10.257s-13.06-4.2-25.493,9.51a26.817,26.817,0,0,0-5.4,9.372Z" fill="#ffbe9d"/>
          <g id="Group_150" data-name="Group 150">
            <path id="Path_99" data-name="Path 99" d="M267.1,384.245a5.138,5.138,0,0,1-.536-1.048q-.52-1.192-1.284-2.937l-1.844-4.384a9.487,9.487,0,0,0-3.151-4.6,14.549,14.549,0,0,0-2.586-1.42l-2.556-1.141c-1.633-.718-3.114-1.343-4.36-1.863l-2.954-1.225a5.252,5.252,0,0,1-1.065-.5,5.005,5.005,0,0,1,1.136.313c.719.235,1.753.6,3.019,1.073s2.765,1.068,4.414,1.764l2.576,1.117a14.487,14.487,0,0,1,2.684,1.465,9.762,9.762,0,0,1,3.3,4.859c.641,1.63,1.225,3.117,1.734,4.409.446,1.182.823,2.182,1.128,2.992A5.036,5.036,0,0,1,267.1,384.245Z" fill="#eb996e"/>
          </g>
          <g id="Group_151" data-name="Group 151">
            <path id="Path_100" data-name="Path 100" d="M248.948,374.233a9.29,9.29,0,0,1,1.908,1.479,41.2,41.2,0,0,1,7.464,8.9,9.305,9.305,0,0,1,1.122,2.137,13.86,13.86,0,0,1-1.43-1.935c-.851-1.21-2.061-2.856-3.508-4.585s-2.858-3.2-3.9-4.254A13.631,13.631,0,0,1,248.948,374.233Z" fill="#eb996e"/>
          </g>
          <g id="Group_152" data-name="Group 152">
            <path id="Path_101" data-name="Path 101" d="M259.268,396.792a2.312,2.312,0,0,1-.761-.3,14.4,14.4,0,0,1-1.895-1.166,32.2,32.2,0,0,1-5.27-5.07c-1.872-2.144-3.538-4.106-4.727-5.543a17.3,17.3,0,0,1-1.841-2.4,17.372,17.372,0,0,1,2.119,2.154c1.26,1.374,2.971,3.3,4.84,5.442a40.239,40.239,0,0,0,5.1,5.119C258.279,396.187,259.308,396.715,259.268,396.792Z" fill="#eb996e"/>
          </g>
          <g id="Group_153" data-name="Group 153">
            <path id="Path_102" data-name="Path 102" d="M248.554,396.773a7.566,7.566,0,0,1-1.861-.931,43.22,43.22,0,0,1-4.159-2.8,48.678,48.678,0,0,1-3.827-3.237,7.769,7.769,0,0,1-1.423-1.516c.109-.12,2.476,1.98,5.565,4.338S248.635,396.637,248.554,396.773Z" fill="#eb996e"/>
          </g>
          <g id="Group_161" data-name="Group 161">
            <g id="Group_158" data-name="Group 158">
              <path id="Path_103" data-name="Path 103" d="M307.763,411.771s-3.173-4.9-3.611-6.653,0-10.078-5.842-8.763v.6c.146.711,0,17.654,0,17.654Z" fill="#ffbe9d"/>
              <g id="Group_155" data-name="Group 155">
                <path id="Path_104" data-name="Path 104" d="M232.935,420.638s-5.4,49.746,52.844,48.3c47.485-1.183,46.648-47.466,46.648-47.466Z" fill="#fc885c"/>
                <ellipse id="Ellipse_7" data-name="Ellipse 7" cx="54.272" cy="13.121" rx="54.272" ry="13.121" transform="translate(227.537 407.986)" fill="#e8505b"/>
                <ellipse id="Ellipse_8" data-name="Ellipse 8" cx="49.813" cy="8.291" rx="49.813" ry="8.291" transform="translate(232.803 412.347)" opacity="0.4"/>
                <g id="Group_154" data-name="Group 154">
                  <path id="Path_105" data-name="Path 105" d="M334.239,424.857a1.094,1.094,0,0,1-.22.159l-.673.421c-.591.374-1.49.879-2.671,1.486a53.39,53.39,0,0,1-10.516,3.945,131.133,131.133,0,0,1-16.38,3.058,159.187,159.187,0,0,1-20.376,1c-7.236-.061-14.131-.3-20.384-.848a116.224,116.224,0,0,1-16.464-2.561,73.689,73.689,0,0,1-10.723-3.345c-1.243-.467-2.17-.92-2.808-1.2l-.719-.336a1.082,1.082,0,0,1-.237-.131.981.981,0,0,1,.259.082l.739.289c.651.252,1.589.674,2.838,1.111a79.943,79.943,0,0,0,10.734,3.175A120.423,120.423,0,0,0,263.06,433.6c6.235.518,13.121.744,20.347.8a164.115,164.115,0,0,0,20.314-.958,136.986,136.986,0,0,0,16.344-2.938,56.35,56.35,0,0,0,10.52-3.771c1.19-.576,2.1-1.051,2.708-1.395l.7-.376A1.078,1.078,0,0,1,334.239,424.857Z" fill="#263238"/>
                </g>
              </g>
              <path id="Path_106" data-name="Path 106" d="M300.986,419.518s5.941-19.911,7.986-22.56c1.69-2.188,13.663-11.243,17.77-14.322a9.8,9.8,0,0,1,3.39-1.643c4.072-1.078,8.133-1.792,14.837,1.109a16.939,16.939,0,0,1,9.139,9.856l-22.351,13.89-.87,9.4L312.9,410.665a4.914,4.914,0,0,0-.529-2.745S306.669,421.777,300.986,419.518Z" fill="#ffbe9d"/>
              <g id="Group_156" data-name="Group 156">
                <path id="Path_107" data-name="Path 107" d="M279.424,405.381c-2.27-3.045-4.163-5.892-5.668-8.336-1.473-2.463-2.567-4.516-3.281-5.955a15.166,15.166,0,0,0-1.161-2.219,15.334,15.334,0,0,0,.884,2.348,63.513,63.513,0,0,0,3.079,6.109,99.329,99.329,0,0,0,5.564,8.483c2.243,3.091,4.868,6.365,7.663,9.758,3.893,4.681,7.5,9.053,10.426,12.884l.806-.037c-2.928-3.983-6.613-8.523-10.625-13.346C284.319,411.679,281.687,408.432,279.424,405.381Z" fill="#f5f5f5"/>
                <path id="Path_108" data-name="Path 108" d="M265.136,391.116a15.716,15.716,0,0,0,.947,2.317c.646,1.474,1.587,3.6,2.693,6.255a208.594,208.594,0,0,1,7.534,21.143c.781,2.807,1.611,5.536,2.59,8.068l.8-.007c-.99-2.568-1.824-5.354-2.64-8.284a172.212,172.212,0,0,0-7.777-21.14c-1.175-2.632-2.195-4.731-2.928-6.166A14.806,14.806,0,0,0,265.136,391.116Z" fill="#f5f5f5"/>
                <path id="Path_109" data-name="Path 109" d="M267.1,388.728a15.627,15.627,0,0,0,1.073,2.287c.738,1.446,1.824,3.529,3.2,6.088,2.75,5.112,6.6,12.155,11.3,19.684,2.714,4.381,5.441,8.4,7.965,11.9l.839-.026c-2.543-3.609-5.334-7.764-8.137-12.289-4.677-7.506-8.6-14.5-11.476-19.537l-3.414-5.966A15.533,15.533,0,0,0,267.1,388.728Z" fill="#f5f5f5"/>
                <path id="Path_110" data-name="Path 110" d="M310.832,422.914a33.143,33.143,0,0,0-8.851-12.145,80.5,80.5,0,0,0-11.006-8.008c-3.6-2.269-6.971-4.333-9.906-6.424a69.14,69.14,0,0,1-12.579-11.469c-1.313-1.531-2.276-2.768-2.922-3.613-.3-.393-.542-.709-.734-.962a1.637,1.637,0,0,0-.271-.313,1.59,1.59,0,0,0,.205.36l.672,1.009c.606.876,1.533,2.148,2.816,3.716a66.3,66.3,0,0,0,12.489,11.724c2.934,2.134,6.3,4.233,9.879,6.521a81.107,81.107,0,0,1,10.871,8,32.512,32.512,0,0,1,8.626,11.906,24.482,24.482,0,0,1,1.331,4.221l.776-.082A25.125,25.125,0,0,0,310.832,422.914Z" fill="#f5f5f5"/>
                <path id="Path_111" data-name="Path 111" d="M309.03,426.207a34.785,34.785,0,0,0-5.339-9.114,57.864,57.864,0,0,0-9.3-8.976c-3.594-2.842-7.181-5.31-10.382-7.621s-6.027-4.462-8.282-6.409a61.736,61.736,0,0,1-5.081-4.891,23.9,23.9,0,0,0-1.765-1.905,2.206,2.206,0,0,0,.357.574c.249.366.648.881,1.178,1.532a49.063,49.063,0,0,0,4.943,5.106,105.048,105.048,0,0,0,8.223,6.579c3.187,2.349,6.755,4.831,10.32,7.651a59.707,59.707,0,0,1,9.223,8.816,35.71,35.71,0,0,1,5.386,8.863c.177.432.331.849.478,1.259l.518-.047C309.36,427.159,309.216,426.7,309.03,426.207Z" fill="#f5f5f5"/>
                <path id="Path_112" data-name="Path 112" d="M282.8,421.58c-3.833-7.032-7.067-13.523-9.357-18.246l-2.7-5.6a12.876,12.876,0,0,0-1.063-2.024,12.6,12.6,0,0,0,.783,2.148c.556,1.362,1.394,3.317,2.473,5.715,2.165,4.791,5.328,11.337,9.17,18.386,1.3,2.394,2.6,4.682,3.85,6.846l.86-.018C285.526,426.512,284.176,424.1,282.8,421.58Z" fill="#f5f5f5"/>
                <path id="Path_113" data-name="Path 113" d="M290.8,412.6a205.654,205.654,0,0,1-15.258-16.747c-1.835-2.248-3.278-4.1-4.282-5.378a15.809,15.809,0,0,0-1.609-1.949,15.16,15.16,0,0,0,1.363,2.131c.93,1.334,2.308,3.243,4.093,5.543a170.806,170.806,0,0,0,15.142,16.961c3.161,3.128,6.367,5.893,9.059,8.6a41.737,41.737,0,0,1,5.245,6.262l.668-.049a39.556,39.556,0,0,0-5.4-6.721C297.13,418.484,293.944,415.709,290.8,412.6Z" fill="#f5f5f5"/>
                <path id="Path_114" data-name="Path 114" d="M274.383,426.366c-1.332-4.014-2.232-7.873-3.077-11.382-1.617-7.04-3.124-12.733-4.733-16.465a29.166,29.166,0,0,0-2.877-5.587,1.6,1.6,0,0,0,.165.381c.146.282.328.635.554,1.074.474.951,1.152,2.363,1.874,4.245,1.511,3.745,2.926,9.417,4.475,16.477.812,3.523,1.681,7.4,3,11.462.26.769.542,1.554.84,2.342h.715C274.983,428.057,274.67,427.2,274.383,426.366Z" fill="#f5f5f5"/>
              </g>
              <g id="Group_157" data-name="Group 157">
                <path id="Path_115" data-name="Path 115" d="M314.683,414.293a.815.815,0,0,1,.237-.016c.159-.007.391.012.7.03.61.049,1.508.149,2.658.316a60.457,60.457,0,0,1,9.616,2.129,21.136,21.136,0,0,1,3.013,1.325,4.089,4.089,0,0,1,1.366,1.188,2.293,2.293,0,0,1,.283,1.9,2.619,2.619,0,0,1-1.308,1.472,10.553,10.553,0,0,1-1.724.92,28.937,28.937,0,0,1-3.815,1.326,118.286,118.286,0,0,1-17.554,3.376,207.4,207.4,0,0,1-32.432.893c-4.15-.16-7.5-.355-9.822-.5l-2.667-.186-.693-.061a.821.821,0,0,1-.235-.039.8.8,0,0,1,.238-.014l.7.01,2.671.088,9.824.333a222.272,222.272,0,0,0,32.359-1.042,121.82,121.82,0,0,0,17.488-3.321,28.947,28.947,0,0,0,3.761-1.285,10.1,10.1,0,0,0,1.666-.875,2.2,2.2,0,0,0,1.131-1.211,1.868,1.868,0,0,0-.215-1.551,3.719,3.719,0,0,0-1.222-1.072,21.187,21.187,0,0,0-2.932-1.324,65.909,65.909,0,0,0-9.525-2.276c-1.142-.2-2.033-.329-2.637-.412S314.683,414.314,314.683,414.293Z" fill="#263238"/>
              </g>
            </g>
            <g id="Group_159" data-name="Group 159">
              <path id="Path_116" data-name="Path 116" d="M319.534,401.986c.088.123-1.776,1.571-3.9,3.543s-3.724,3.709-3.84,3.611a24.807,24.807,0,0,1,7.743-7.154Z" fill="#eb996e"/>
            </g>
            <g id="Group_160" data-name="Group 160">
              <path id="Path_117" data-name="Path 117" d="M319.09,409.88a7.344,7.344,0,0,0-6.4.133c-.04-.048.219-.355.774-.677a5.2,5.2,0,0,1,4.822-.1C318.855,409.535,319.127,409.83,319.09,409.88Z" fill="#eb996e"/>
            </g>
          </g>
        </g>
      </g>
    </g>
    <g id="Shelves">
      <g id="Group_175" data-name="Group 175">
        <g id="Group_165" data-name="Group 165">
          <path id="Path_118" data-name="Path 118" d="M137.689,203.481c-.584.456-32.292,14.695-32.292,14.695s8.731,18.542,25.676,10.281C146.541,220.916,137.689,203.481,137.689,203.481Z" fill="#455a64"/>
          <g id="Group_164" data-name="Group 164">
            <path id="Path_119" data-name="Path 119" d="M137.336,101.073c.719,0,1.3,24.62,1.3,54.982s-.583,54.988-1.3,54.988-1.3-24.614-1.3-54.988S136.617,101.073,137.336,101.073Z" fill="#455a64"/>
          </g>
        </g>
        <g id="Group_167" data-name="Group 167">
          <path id="Path_120" data-name="Path 120" d="M114.775,175.344c-.584.456-32.292,14.7-32.292,14.7s8.731,18.542,25.676,10.281C123.627,192.779,114.775,175.344,114.775,175.344Z" fill="#455a64"/>
          <g id="Group_166" data-name="Group 166">
            <path id="Path_121" data-name="Path 121" d="M114.421,99.212c.72,0,1.3,18.737,1.3,41.845s-.583,41.85-1.3,41.85-1.3-18.733-1.3-41.85S113.7,99.212,114.421,99.212Z" fill="#455a64"/>
          </g>
        </g>
        <g id="Group_169" data-name="Group 169">
          <path id="Path_122" data-name="Path 122" d="M87.016,147.585c-.584.456-32.292,14.695-32.292,14.695s8.731,18.542,25.676,10.281C95.868,165.02,87.016,147.585,87.016,147.585Z" fill="#455a64"/>
          <g id="Group_168" data-name="Group 168">
            <path id="Path_123" data-name="Path 123" d="M86.663,102.042c.719,0,1.3,11.889,1.3,26.551s-.583,26.555-1.3,26.555-1.3-11.887-1.3-26.555S85.944,102.042,86.663,102.042Z" fill="#455a64"/>
          </g>
        </g>
        <g id="Group_172" data-name="Group 172">
          <g id="Group_170" data-name="Group 170">
            <circle id="Ellipse_9" data-name="Ellipse 9" cx="32.397" cy="32.397" r="32.397" transform="translate(142.664 143.737)" fill="#455a64"/>
            <path id="Path_124" data-name="Path 124" d="M173.846,147.356l-2.54-41.661h11.939l-3.3,41.661Z" fill="#455a64"/>
          </g>
          <g id="Group_171" data-name="Group 171">
            <path id="Path_125" data-name="Path 125" d="M188.69,198.863a.937.937,0,0,1-.214.146l-.654.383c-.292.161-.643.383-1.082.6l-1.537.695a26.788,26.788,0,0,1-10.523,1.937,27.465,27.465,0,0,1-15.043-4.781,24.255,24.255,0,0,1-6.544-6.77,27.789,27.789,0,0,1-4.145-19.452,24.259,24.259,0,0,1,3.217-8.851,27.47,27.47,0,0,1,11.788-10.5,26.782,26.782,0,0,1,10.4-2.519l1.687.007c.487.018.9.078,1.23.105l.754.083a1.025,1.025,0,0,1,.255.046.93.93,0,0,1-.26.007l-.757-.031c-.332-.011-.741-.054-1.226-.055l-1.675.04a27.435,27.435,0,0,0-21.783,13.061,23.9,23.9,0,0,0-3.125,8.685,27.421,27.421,0,0,0,4.069,19.094,23.9,23.9,0,0,0,6.392,6.655,27.432,27.432,0,0,0,25.215,3.048l1.546-.646c.442-.2.8-.4,1.1-.55l.678-.337A.939.939,0,0,1,188.69,198.863Z" fill="#263238"/>
          </g>
        </g>
        <g id="Group_174" data-name="Group 174">
          <path id="Path_126" data-name="Path 126" d="M45.162,51.787l11.472,41.5h48.589l11.472-41.5Z" fill="#455a64"/>
          <g id="Group_173" data-name="Group 173">
            <path id="Path_127" data-name="Path 127" d="M114.422,60.015c0,.144-15,.26-33.492.26s-33.494-.116-33.494-.26,14.993-.261,33.494-.261S114.422,59.871,114.422,60.015Z" fill="#263238"/>
          </g>
          <path id="Path_128" data-name="Path 128" d="M123.33,62.492h-9.945l1.591-4.341h8.354a2.171,2.171,0,0,1,2.17,2.171h0A2.171,2.171,0,0,1,123.33,62.492Z" fill="#263238"/>
          <path id="Path_129" data-name="Path 129" d="M38.452,62.492H48.4l-1.591-4.341H38.452a2.17,2.17,0,0,0-2.17,2.171h0A2.17,2.17,0,0,0,38.452,62.492Z" fill="#263238"/>
        </g>
        <rect id="Rectangle_7" data-name="Rectangle 7" width="181.474" height="12.974" transform="translate(32.881 92.725)" fill="#ef4a5a"/>
      </g>
    </g>
    <g id="Kitchen_tools" data-name="Kitchen tools">
      <g id="Group_184" data-name="Group 184">
        <path id="Path_130" data-name="Path 130" d="M449.12,277.42a5.4,5.4,0,0,0-6.98,3.064l-8.052,21.565h0l10.016,3.679,8.112-21.356A5.4,5.4,0,0,0,449.12,277.42Z" fill="#fc885c"/>
        <path id="Path_131" data-name="Path 131" d="M448.9,284.238a2.3,2.3,0,1,1-2.3-2.3A2.3,2.3,0,0,1,448.9,284.238Z" fill="#fafafa"/>
        <path id="Path_132" data-name="Path 132" d="M443.2,298.382a2.3,2.3,0,1,1-2.3-2.3A2.3,2.3,0,0,1,443.2,298.382Z" fill="#fafafa"/>
        <path id="Path_133" data-name="Path 133" d="M434.088,302.049l-15.51,40.458,19.094-.239,15.572-33.431Z" fill="#e0e0e0"/>
        <g id="Group_182" data-name="Group 182">
          <rect id="Rectangle_8" data-name="Rectangle 8" width="53.501" height="61.526" transform="translate(395.009 342.507)" fill="#fc885c"/>
          <g id="Group_176" data-name="Group 176">
            <path id="Path_134" data-name="Path 134" d="M448.51,357.835c0,.144-11.978.26-26.75.26s-26.751-.116-26.751-.26,11.975-.261,26.751-.261S448.51,357.691,448.51,357.835Z" fill="#fff"/>
          </g>
          <g id="Group_177" data-name="Group 177">
            <path id="Path_135" data-name="Path 135" d="M448.51,364.458c0,.144-11.978.261-26.75.261s-26.751-.117-26.751-.261,11.975-.26,26.751-.26S448.51,364.315,448.51,364.458Z" fill="#fff"/>
          </g>
          <g id="Group_178" data-name="Group 178">
            <path id="Path_136" data-name="Path 136" d="M448.51,371.082c0,.144-11.978.261-26.75.261s-26.751-.117-26.751-.261,11.975-.26,26.751-.26S448.51,370.938,448.51,371.082Z" fill="#fff"/>
          </g>
          <g id="Group_179" data-name="Group 179">
            <path id="Path_137" data-name="Path 137" d="M448.51,377.706c0,.144-11.978.26-26.75.26s-26.751-.116-26.751-.26,11.975-.261,26.751-.261S448.51,377.562,448.51,377.706Z" fill="#fff"/>
          </g>
          <g id="Group_180" data-name="Group 180">
            <path id="Path_138" data-name="Path 138" d="M448.51,384.329c0,.144-11.978.261-26.75.261s-26.751-.117-26.751-.261,11.975-.26,26.751-.26S448.51,384.186,448.51,384.329Z" fill="#fff"/>
          </g>
          <g id="Group_181" data-name="Group 181">
            <path id="Path_139" data-name="Path 139" d="M448.51,390.953c0,.144-11.978.261-26.75.261s-26.751-.117-26.751-.261,11.975-.26,26.751-.26S448.51,390.809,448.51,390.953Z" fill="#fff"/>
          </g>
        </g>
        <path id="Path_140" data-name="Path 140" d="M363.566,308.639l35.772,2.862s1.022-17.375-15.74-19.215S363.566,308.639,363.566,308.639Z" fill="#455a64"/>
        <g id="Group_183" data-name="Group 183">
          <path id="Path_141" data-name="Path 141" d="M409.15,342.506c-.68.237-4.4-8.679-8.3-19.91s-6.52-20.532-5.841-20.768,4.395,8.677,8.3,19.913S409.829,342.271,409.15,342.506Z" fill="#455a64"/>
        </g>
      </g>
    </g>
    <g id="Food">
      <g id="Group_186" data-name="Group 186">
        <g id="Group_185" data-name="Group 185">
          <path id="Path_142" data-name="Path 142" d="M411.288,460.345a3.942,3.942,0,0,1-.708.153l-2.048.338-1.484.233c-.544.071-1.139.115-1.776.179-1.277.109-2.728.3-4.343.318l-2.532.087c-.881.025-1.8-.026-2.747-.038-1.9.005-3.921-.19-6.05-.354a81.911,81.911,0,0,1-26.679-7.31c-1.915-.945-3.753-1.808-5.386-2.78-.822-.475-1.637-.9-2.382-1.368l-2.134-1.366c-1.379-.841-2.531-1.743-3.574-2.487-.516-.38-1.005-.722-1.437-1.06l-1.157-.956-1.59-1.336a3.8,3.8,0,0,1-.531-.492,3.675,3.675,0,0,1,.6.412l1.648,1.257,1.182.917c.44.326.936.654,1.458,1.022,1.055.719,2.216,1.6,3.6,2.413l2.142,1.331c.747.459,1.562.871,2.384,1.335,1.634.951,3.469,1.8,5.378,2.722a84.386,84.386,0,0,0,26.527,7.269c2.115.176,4.124.385,6.014.4.944.02,1.855.081,2.732.067l2.521-.053c1.608,0,3.055-.159,4.329-.24.636-.05,1.231-.08,1.775-.136l1.485-.186,2.059-.242A3.7,3.7,0,0,1,411.288,460.345Z" fill="#455a64"/>
        </g>
        <path id="Path_143" data-name="Path 143" d="M368.713,456.4c-7.507-1-17.3,1.906-22.919,6.986a74.009,74.009,0,0,0,22.919-6.986" fill="#455a64"/>
        <path id="Path_144" data-name="Path 144" d="M369.092,456.49c2.749-7.056-1.314-17-1.314-17-.791-1.341-.434,9.169,1.314,17" fill="#455a64"/>
        <path id="Path_145" data-name="Path 145" d="M357.253,450.891c2.007-5.18-.908-12.458-.908-12.458-.569-.982-.337,6.723.908,12.458" fill="#455a64"/>
        <path id="Path_146" data-name="Path 146" d="M379.688,458.952c2.006-5.181-.909-12.459-.909-12.459-.568-.981-.337,6.723.909,12.459" fill="#455a64"/>
        <path id="Path_147" data-name="Path 147" d="M357.479,451c-5.586-.743-12.875,1.419-17.053,5.2a55.061,55.061,0,0,0,17.053-5.2" fill="#455a64"/>
        <path id="Path_148" data-name="Path 148" d="M380.83,459.791c-7.928.107-17.634,4.606-22.678,10.723a77.471,77.471,0,0,0,22.678-10.723" fill="#455a64"/>
      </g>
      <g id="Group_189" data-name="Group 189">
        <path id="Path_149" data-name="Path 149" d="M411.053,421.923a16.161,16.161,0,0,0-28.33,2.649,18.614,18.614,0,0,0,.227,14.263,25.553,25.553,0,0,0,9.337,11.024c10.57,7.2,25.9,6.874,35.725-1.315,3.648-3.041,6.577-7.193,7.249-11.9a14.809,14.809,0,0,0-21.909-15.007" fill="#ef4a5a"/>
        <path id="Path_150" data-name="Path 150" d="M411.092,421.9a5.635,5.635,0,0,0-5.978-4.123l3.536,4.213A5.491,5.491,0,0,0,404.3,425.4c-.166.434-.216,1.038.2,1.254a1.071,1.071,0,0,0,.886-.092l4.3-1.783a14.8,14.8,0,0,0,2.562,6.672,17.53,17.53,0,0,0,1.621-6.713l4.748,2.1a7.1,7.1,0,0,0-2.232-3.517,11.787,11.787,0,0,0,3.972-1.549c.366-.227.769-.619.6-1.016-.128-.306-.515-.39-.845-.422a15.649,15.649,0,0,0-9.054,1.88" fill="#455a64"/>
        <path id="Path_151" data-name="Path 151" d="M410.779,423.675a30.9,30.9,0,0,0-1.181-14.334c1.132-.252,2.526-.421,3.258.478a3.043,3.043,0,0,1,.48,1.914,33.576,33.576,0,0,1-2.538,13.22" fill="#455a64"/>
        <g id="Group_187" data-name="Group 187">
          <path id="Path_152" data-name="Path 152" d="M387.719,440.889a3.51,3.51,0,0,1-.742-.744,13.031,13.031,0,0,1-1.588-2.388,14.646,14.646,0,0,1,2.9-17.518,12.976,12.976,0,0,1,2.273-1.749,3.516,3.516,0,0,1,.942-.466,30.565,30.565,0,0,0-2.956,2.477,14.9,14.9,0,0,0-2.826,17.092A30.48,30.48,0,0,0,387.719,440.889Z" fill="#fff"/>
        </g>
        <g id="Group_188" data-name="Group 188">
          <path id="Path_153" data-name="Path 153" d="M392.486,444.491c-.047.132-.8-.03-1.554-.572s-1.155-1.2-1.046-1.284.651.366,1.349.86S392.54,444.354,392.486,444.491Z" fill="#fff"/>
        </g>
      </g>
      <g id="Group_194" data-name="Group 194">
        <g id="Group_192" data-name="Group 192">
          <path id="Path_154" data-name="Path 154" d="M191.526,367.052c-.432.1,2.791,16.319,2.791,16.319h8.267l3.65-15.674A26.085,26.085,0,0,0,191.526,367.052Z" fill="#455a64"/>
          <g id="Group_191" data-name="Group 191">
            <path id="Path_155" data-name="Path 155" d="M186.549,458.36s-12.162-34.055-10.46-43.3,5.352-11.19,8.271-14.109,5.352-5.351,6.081-8.27,0-14.6,0-14.6-2.189-3.406-1.459-4.622,18.73,0,18.73,0a8.193,8.193,0,0,1-1.459,4.135s-.487,13.622.243,15.082,11.919,13.865,13.622,20.19S213.4,458.36,213.4,458.36Z" fill="#f5f5f5"/>
            <g id="Group_190" data-name="Group 190">
              <path id="Path_156" data-name="Path 156" d="M186.549,458.36s.165-.013.474-.02l1.369-.02,5.282-.042,19.727-.085-.164.131c1.037-4.949,2.155-10.563,3.295-16.737,1.118-6.176,2.326-12.91,3.155-20.136.194-1.806.366-3.646.407-5.507a13.237,13.237,0,0,0-.165-2.766,13.431,13.431,0,0,0-.988-2.627,64.492,64.492,0,0,0-6.49-9.821c-1.223-1.6-2.5-3.189-3.788-4.794-.643-.8-1.3-1.6-1.927-2.445a7.327,7.327,0,0,1-.462-.68,3.336,3.336,0,0,1-.206-.835c-.081-.535-.114-1.059-.143-1.587-.182-4.211-.057-8.472.067-12.8l0-.07.042-.065a9.6,9.6,0,0,0,.556-.958,7.815,7.815,0,0,0,.86-3.033l.242.26c-4.1-.261-8.16-.468-12.131-.532a37.45,37.45,0,0,0-5.837.231,1.537,1.537,0,0,0-.514.171.969.969,0,0,0-.118.534,4.254,4.254,0,0,0,.3,1.318,14.4,14.4,0,0,0,1.264,2.5l.036.059,0,.062c.178,3.111.3,6.17.316,9.182a42.378,42.378,0,0,1-.171,4.485,8.922,8.922,0,0,1-1.625,4.131,25.761,25.761,0,0,1-2.772,3.306c-.988,1.014-1.96,2.012-2.984,2.95a31.6,31.6,0,0,0-2.875,2.849,15.463,15.463,0,0,0-2.142,3.269,26.267,26.267,0,0,0-2.191,7.188,16.566,16.566,0,0,0-.041,3.574c.08,1.178.242,2.332.4,3.463.719,4.518,1.759,8.637,2.733,12.361,1.992,7.444,3.881,13.3,5.175,17.326.656,1.993,1.164,3.539,1.515,4.606.168.511.3.9.392,1.19s.12.409.12.409-.064-.134-.163-.394c-.1-.282-.248-.671-.434-1.176-.375-1.038-.917-2.577-1.6-4.58-1.347-4.007-3.285-9.854-5.323-17.3a125.512,125.512,0,0,1-2.8-12.386c-.169-1.137-.337-2.3-.423-3.492a16.969,16.969,0,0,1,.032-3.664,26.634,26.634,0,0,1,2.206-7.322,15.982,15.982,0,0,1,2.192-3.365,31.926,31.926,0,0,1,2.907-2.9c1-.925,1.978-1.927,2.956-2.936a25.275,25.275,0,0,0,2.714-3.249,8.44,8.44,0,0,0,1.539-3.921,41.731,41.731,0,0,0,.16-4.427c-.018-2.995-.146-6.052-.327-9.151l.04.121a14.934,14.934,0,0,1-1.317-2.6,4.694,4.694,0,0,1-.328-1.491,1.412,1.412,0,0,1,.222-.847,1.47,1.47,0,0,1,.818-.362,37.526,37.526,0,0,1,5.947-.246c3.986.062,8.043.267,12.159.528l.255.017-.013.243a8.264,8.264,0,0,1-.915,3.267,10.168,10.168,0,0,1-.588,1.013l.044-.135c-.124,4.311-.25,8.583-.071,12.751.027.517.061,1.04.136,1.536a3.064,3.064,0,0,0,.156.681,7.2,7.2,0,0,0,.417.608c.614.822,1.271,1.625,1.912,2.429,1.288,1.606,2.565,3.2,3.79,4.807a64.686,64.686,0,0,1,6.53,9.916,13.894,13.894,0,0,1,1.021,2.737,13.563,13.563,0,0,1,.17,2.877c-.044,1.89-.222,3.736-.421,5.55-.848,7.25-2.076,13.982-3.217,20.16-1.163,6.174-2.307,11.784-3.372,16.733l-.029.132H213.4l-19.806-.086-5.253-.042-1.346-.02C186.7,458.372,186.549,458.36,186.549,458.36Z" fill="#263238"/>
            </g>
          </g>
          <path id="Path_157" data-name="Path 157" d="M211.068,454.829a194.5,194.5,0,0,0,6.105-34.767c.1-1.342.1-2.892-.911-3.778-1.239-1.084-3.137-.5-4.7,0a28.4,28.4,0,0,1-14.27.757c-4.611-.948-9.182-3.06-13.827-2.291a4.424,4.424,0,0,0-3.048,1.611c-.754,1.118-.571,2.6-.359,3.928,1.824,11.432,5.554,24.576,8.588,34.544Z" fill="#ffc641"/>
        </g>
        <g id="Group_193" data-name="Group 193">
          <path id="Path_158" data-name="Path 158" d="M214.123,417.687a5.39,5.39,0,0,1-.878.953,21.8,21.8,0,0,1-2.752,2.215,24.581,24.581,0,0,1-22.367,2.81,21.845,21.845,0,0,1-3.215-1.466,5.418,5.418,0,0,1-1.086-.706c.048-.091,1.621.889,4.422,1.824a25.51,25.51,0,0,0,22.043-2.769C212.772,418.949,214.054,417.61,214.123,417.687Z" fill="#fff"/>
        </g>
      </g>
    </g>
  </g>
</svg>
