<svg xmlns="http://www.w3.org/2000/svg" width="22.32" height="24.005" viewBox="0 0 22.32 24.005">
  <g id="Interface-Essential_Delete_bin-2-alternate" data-name="Interface-Essential / Delete / bin-2-alternate" transform="translate(-351.866 -3190.995)">
    <g id="Group_317" data-name="Group 317">
      <g id="bin-2-alternate">
        <path id="Shape_1476" data-name="Shape 1476" d="M352.756,3197.366,373.3,3193" fill="none" stroke="#fff" stroke-linecap="round" stroke-linejoin="round" stroke-width="1.5"/>
        <path id="Shape_1477" data-name="Shape 1477" d="M364.605,3191.782l-4.4.935a1.5,1.5,0,0,0-1.158,1.782l.312,1.468,7.336-1.56-.312-1.467a1.5,1.5,0,0,0-1.778-1.158Z" fill="none" stroke="#fff" stroke-linecap="round" stroke-linejoin="round" stroke-width="1.5"/>
        <path id="Shape_1478" data-name="Shape 1478" d="M361.756,3209v-7.5" fill="none" stroke="#fff" stroke-linecap="round" stroke-linejoin="round" stroke-width="1.5"/>
        <path id="Shape_1479" data-name="Shape 1479" d="M366.256,3209v-7.5" fill="none" stroke="#fff" stroke-linecap="round" stroke-linejoin="round" stroke-width="1.5"/>
        <path id="Shape_1480" data-name="Shape 1480" d="M369.631,3197h2.625l-1.385,15.874a1.5,1.5,0,0,1-1.5,1.376H358.636a1.5,1.5,0,0,1-1.494-1.376l-1.037-12.5" fill="none" stroke="#fff" stroke-linecap="round" stroke-linejoin="round" stroke-width="1.5"/>
      </g>
    </g>
  </g>
</svg>
