<svg xmlns="http://www.w3.org/2000/svg" width="25.536" height="25.521" viewBox="0 0 25.536 25.521">
  <g id="Social-Medias-Rewards-Rating_Rating_rating-star" data-name="Social-Medias-Rewards-Rating / Rating / rating-star" transform="translate(-522.984 -812.004)">
    <g id="Group_83" data-name="Group 83" transform="translate(523.752 812.754)">
      <g id="rating-star">
        <path id="Shape_274" data-name="Shape 274" d="M536.526,813.23l3.569,7.07,6.869.681a.859.859,0,0,1,.533,1.466l-5.653,5.6,2.1,7.613a.867.867,0,0,1-1.228,1l-6.964-3.448-6.954,3.444a.867.867,0,0,1-1.228-1l2.1-7.613-5.657-5.6a.859.859,0,0,1,.533-1.466l6.869-.68,3.563-7.066a.873.873,0,0,1,1.555,0Z" transform="translate(-523.752 -812.754)" fill="none" stroke="#999" stroke-linecap="round" stroke-linejoin="round" stroke-width="1.5"/>
      </g>
    </g>
  </g>
</svg>
