<svg xmlns="http://www.w3.org/2000/svg" width="24" height="24" viewBox="0 0 24 24">
  <g id="Interface-Essential_Paginate_paginate-filter-picture" data-name="Interface-Essential / Paginate / paginate-filter-picture" transform="translate(-495.005 -7287)">
    <g id="Group_740" data-name="Group 740">
      <g id="paginate-filter-picture">
        <path id="Rectangle-path_242" data-name="Rectangle-path 242" d="M498.755,7289.25a1.5,1.5,0,0,1,1.5-1.5h16.5a1.5,1.5,0,0,1,1.5,1.5v16.5a1.5,1.5,0,0,1-1.5,1.5h-16.5a1.5,1.5,0,0,1-1.5-1.5Z" fill="none" stroke="#999" stroke-linecap="round" stroke-linejoin="round" stroke-width="1.5"/>
        <path id="Shape_3076" data-name="Shape 3076" d="M515.255,7310.25h-18a1.5,1.5,0,0,1-1.5-1.5v-18" fill="none" stroke="#999" stroke-linecap="round" stroke-linejoin="round" stroke-width="1.5"/>
        <path id="Shape_3077" data-name="Shape 3077" d="M503.629,7293.75a.375.375,0,1,0,.376.375.375.375,0,0,0-.376-.375" fill="none" stroke="#999" stroke-linecap="round" stroke-linejoin="round" stroke-width="1.5"/>
        <path id="Shape_3078" data-name="Shape 3078" d="M515.255,7302.748l-3.87-5.836a.75.75,0,0,0-1.238-.01l-1.995,2.85-1.237-.989a.749.749,0,0,0-1.092.17l-2.546,3.815Z" fill="none" stroke="#999" stroke-linecap="round" stroke-linejoin="round" stroke-width="1.5"/>
      </g>
    </g>
  </g>
</svg>
